<?xml version="1.0" encoding="UTF-8" standalone="no"?>
<!-- Created with Inkscape (http://www.inkscape.org/) -->

<svg
   xmlns:dc="http://purl.org/dc/elements/1.1/"
   xmlns:cc="http://creativecommons.org/ns#"
   xmlns:rdf="http://www.w3.org/1999/02/22-rdf-syntax-ns#"
   xmlns:svg="http://www.w3.org/2000/svg"
   xmlns="http://www.w3.org/2000/svg"
   version="1.1"
   width="235"
   height="200"
   id="svg2">
  <defs
     id="defs4" />
  <metadata
     id="metadata7">
    <rdf:RDF>
      <cc:Work
         rdf:about="">
        <dc:format>image/svg+xml</dc:format>
        <dc:type
           rdf:resource="http://purl.org/dc/dcmitype/StillImage" />
        <dc:title></dc:title>
      </cc:Work>
    </rdf:RDF>
  </metadata>
  <g
     transform="translate(0,-852.3621)"
     id="layer1">
    <g
       id="text4119"
       style="font-size:16px;font-style:normal;font-variant:normal;font-weight:normal;font-stretch:normal;text-align:start;line-height:125%;letter-spacing:0px;word-spacing:0px;writing-mode:lr-tb;text-anchor:start;color:#000000;fill:#1a1a1a;fill-opacity:1;fill-rule:nonzero;stroke:none;marker:none;visibility:visible;display:inline;overflow:visible;enable-background:accumulate;font-family:BodegaSans Medium;-inkscape-font-specification:'BodegaSans Medium,'">
      <path
         d="m 24.132283,947.3563 c -6e-6,1.41868 -0.437339,2.58134 -1.312,3.488 -0.576004,0.58667 -1.184003,0.96534 -1.824,1.136 l 0,3.968 -1.696,0 0,-12.352 1.296,0 c 1.01333,2e-5 1.829329,0.27202 2.448,0.816 0.725328,0.65068 1.087994,1.63201 1.088,2.944 m -1.712,-0.016 c -4e-6,-1.57865 -0.47467,-2.36799 -1.424,-2.368 l 0,5.44 c 0.266664,-0.0427 0.543997,-0.28266 0.832,-0.72 0.394663,-0.59732 0.591996,-1.38132 0.592,-2.352"
         id="path3296"
         style="marker:none" />
      <path
         d="m 28.921533,949.9963 c -5e-6,0.91734 -0.325338,1.67467 -0.976,2.272 -0.512003,0.48001 -1.029336,0.74134 -1.552,0.784 0.07466,1.13067 0.442664,1.696 1.104,1.696 0.223996,0 0.383996,-0.0107 0.48,-0.032 l 0,1.248 c -0.192004,0.0427 -0.39467,0.064 -0.608,0.064 -1.760002,0 -2.640001,-1.408 -2.64,-4.224 -1e-6,-2.79466 0.762665,-4.19199 2.288,-4.192 0.490663,10e-6 0.911996,0.18134 1.264,0.544 0.426662,0.42668 0.639995,1.04001 0.64,1.84 m -1.472,-0.096 c -3e-6,-0.69332 -0.149337,-1.03999 -0.448,-1.04 -0.458669,10e-6 -0.688002,0.83734 -0.688,2.512 -2e-6,0.19201 0.0053,0.32534 0.016,0.4 0.255997,-0.0213 0.50133,-0.19733 0.736,-0.528 0.255997,-0.37333 0.383997,-0.82132 0.384,-1.344"
         id="path3298"
         style="marker:none" />
      <path
         d="m 34.245283,951.8203 c -5e-6,1.64267 -0.288005,2.81067 -0.864,3.504 -0.384004,0.46934 -0.87467,0.704 -1.472,0.704 -0.586669,0 -1.077335,-0.23466 -1.472,-0.704 -0.576001,-0.69333 -0.864001,-1.86133 -0.864,-3.504 -1e-6,-1.64266 0.287999,-2.81066 0.864,-3.504 0.394665,-0.46932 0.885331,-0.70399 1.472,-0.704 0.59733,10e-6 1.087996,0.23468 1.472,0.704 0.575995,0.69334 0.863995,1.86134 0.864,3.504 m -1.584,0 c -4e-6,-1.89866 -0.25067,-2.84799 -0.752,-2.848 -0.490669,10e-6 -0.736002,0.94934 -0.736,2.848 -2e-6,1.89867 0.245331,2.848 0.736,2.848 0.50133,0 0.751996,-0.94933 0.752,-2.848"
         id="path3300"
         style="marker:none" />
      <path
         d="m 39.714033,951.3403 c -5e-6,1.56801 -0.400005,2.77867 -1.2,3.632 -0.52267,0.55467 -1.09867,0.88 -1.728,0.976 l 0,2.736 -1.584,0 0,-10.992 1.488,0 0,0.432 0.48,-0.496 c 0.05333,-0.0107 0.122664,-0.016 0.208,-0.016 0.682663,10e-6 1.226662,0.28801 1.632,0.864 0.469328,0.66134 0.703995,1.61601 0.704,2.864 m -1.6,-0.288 c -4e-6,-0.63999 -0.08,-1.15199 -0.24,-1.536 -0.149337,-0.39466 -0.341337,-0.59199 -0.576,-0.592 -0.245336,10e-6 -0.416003,0.14934 -0.512,0.448 l 0,5.2 c 0.88533,-0.29866 1.327996,-1.47199 1.328,-3.52"
         id="path3302"
         style="marker:none" />
      <path
         d="m 42.446033,955.9483 -1.584,0 0,-12.352 1.584,0 0,12.352"
         id="path3304"
         style="marker:none" />
      <path
         d="m 47.765283,949.9963 c -5e-6,0.91734 -0.325338,1.67467 -0.976,2.272 -0.512003,0.48001 -1.029336,0.74134 -1.552,0.784 0.07466,1.13067 0.442664,1.696 1.104,1.696 0.223996,0 0.383996,-0.0107 0.48,-0.032 l 0,1.248 c -0.192004,0.0427 -0.39467,0.064 -0.608,0.064 -1.760002,0 -2.640001,-1.408 -2.64,-4.224 -1e-6,-2.79466 0.762665,-4.19199 2.288,-4.192 0.490663,10e-6 0.911996,0.18134 1.264,0.544 0.426662,0.42668 0.639995,1.04001 0.64,1.84 m -1.472,-0.096 c -3e-6,-0.69332 -0.149337,-1.03999 -0.448,-1.04 -0.458669,10e-6 -0.688002,0.83734 -0.688,2.512 -2e-6,0.19201 0.0053,0.32534 0.016,0.4 0.255997,-0.0213 0.50133,-0.19733 0.736,-0.528 0.255997,-0.37333 0.383997,-0.82132 0.384,-1.344"
         id="path3306"
         style="marker:none" />
      <path
         d="m 50.433033,954.0283 -0.832,4.176 -0.976,0 0,-4.544 1.808,0.368"
         id="path3308"
         style="marker:none" />
      <path
         d="m 55.225783,946.3323 -1.456,0 0,-2.24 1.456,0 0,2.24 m 0.064,9.616 -1.584,0 0,-8.256 1.584,0 0,8.256"
         id="path3310"
         style="marker:none" />
      <path
         d="m 60.929033,955.9483 -1.488,0 0,-0.432 -0.48,0.496 c -0.05334,0.0107 -0.12267,0.016 -0.208,0.016 -0.682669,0 -1.226669,-0.288 -1.632,-0.864 -0.469334,-0.66133 -0.704001,-1.61599 -0.704,-2.864 -1e-6,-1.56799 0.399999,-2.77866 1.2,-3.632 0.522664,-0.55466 1.098664,-0.87999 1.728,-0.976 l 0,-4.096 1.584,0 0,12.352 m -1.584,-1.68 0,-5.2 c -0.885336,0.29868 -1.328002,1.47201 -1.328,3.52 -2e-6,0.64001 0.07466,1.15734 0.224,1.552 0.159997,0.384 0.35733,0.576 0.592,0.576 0.24533,0 0.415996,-0.14933 0.512,-0.448"
         id="path3312"
         style="marker:none" />
      <path
         d="m 66.234033,949.9963 c -5e-6,0.91734 -0.325338,1.67467 -0.976,2.272 -0.512003,0.48001 -1.029336,0.74134 -1.552,0.784 0.07466,1.13067 0.442664,1.696 1.104,1.696 0.223996,0 0.383996,-0.0107 0.48,-0.032 l 0,1.248 c -0.192004,0.0427 -0.39467,0.064 -0.608,0.064 -1.760002,0 -2.640001,-1.408 -2.64,-4.224 -1e-6,-2.79466 0.762665,-4.19199 2.288,-4.192 0.490663,10e-6 0.911996,0.18134 1.264,0.544 0.426662,0.42668 0.639995,1.04001 0.64,1.84 m -1.472,-0.096 c -3e-6,-0.69332 -0.149337,-1.03999 -0.448,-1.04 -0.458669,10e-6 -0.688002,0.83734 -0.688,2.512 -2e-6,0.19201 0.0053,0.32534 0.016,0.4 0.255997,-0.0213 0.50133,-0.19733 0.736,-0.528 0.255997,-0.37333 0.383997,-0.82132 0.384,-1.344"
         id="path3314"
         style="marker:none" />
      <path
         d="m 70.885783,955.9483 -1.472,0 0,-0.496 -0.528,0.544 c -0.064,0.0213 -0.144003,0.032 -0.24,0.032 -0.512002,0 -0.960002,-0.256 -1.344,-0.768 -0.384001,-0.52266 -0.576001,-1.16799 -0.576,-1.936 -1e-6,-1.11999 0.341332,-2.02666 1.024,-2.72 0.501331,-0.50132 1.018664,-0.78932 1.552,-0.864 l 0,-0.16 c -3e-6,-0.45866 -0.229336,-0.68799 -0.688,-0.688 -0.330669,10e-6 -0.672002,0.048 -1.024,0.144 l 0,-1.28 c 0.341332,-0.096 0.730664,-0.14399 1.168,-0.144 1.418663,10e-6 2.127995,0.80001 2.128,2.4 l 0,5.936 m -1.584,-1.696 0,-3.216 c -0.20267,0.0213 -0.410669,0.21334 -0.624,0.576 -0.288002,0.45867 -0.432002,1.02934 -0.432,1.712 -2e-6,0.928 0.191998,1.392 0.576,1.392 0.21333,0 0.37333,-0.15466 0.48,-0.464"
         id="path3316"
         style="marker:none" />
      <path
         d="m 75.518533,953.6283 c -4e-6,0.69334 -0.240004,1.26934 -0.72,1.728 -0.469337,0.448 -1.045336,0.672 -1.728,0.672 -0.554668,0 -1.040001,-0.0907 -1.456,-0.272 l 0.624,-1.232 c 0.191999,0.096 0.421332,0.144 0.688,0.144 0.245331,0 0.453331,-0.08 0.624,-0.24 0.181331,-0.17066 0.271997,-0.37866 0.272,-0.624 -3e-6,-0.56533 -0.261336,-1.14133 -0.784,-1.728 -0.501335,-0.55466 -0.832001,-0.98133 -0.992,-1.28 -0.181334,-0.34132 -0.272001,-0.71466 -0.272,-1.12 -1e-6,-0.58666 0.207999,-1.07732 0.624,-1.472 0.415998,-0.39466 0.927998,-0.59199 1.536,-0.592 0.426663,10e-6 0.847996,0.08 1.264,0.24 l -0.576,1.168 c -0.149337,-0.0747 -0.34667,-0.11199 -0.592,-0.112 -0.170669,10e-6 -0.320003,0.064 -0.448,0.192 -0.128002,0.11734 -0.192002,0.26134 -0.192,0.432 -2e-6,0.35201 0.250664,0.77868 0.752,1.28 0.50133,0.50134 0.847996,0.94401 1.04,1.328 0.223996,0.43734 0.335996,0.93334 0.336,1.488"
         id="path3318"
         style="marker:none" />
      <path
         d="m 82.260783,955.9483 -1.472,0 0,-0.496 -0.528,0.544 c -0.064,0.0213 -0.144003,0.032 -0.24,0.032 -0.512002,0 -0.960002,-0.256 -1.344,-0.768 -0.384001,-0.52266 -0.576001,-1.16799 -0.576,-1.936 -1e-6,-1.11999 0.341332,-2.02666 1.024,-2.72 0.501331,-0.50132 1.018664,-0.78932 1.552,-0.864 l 0,-0.16 c -3e-6,-0.45866 -0.229336,-0.68799 -0.688,-0.688 -0.330669,10e-6 -0.672002,0.048 -1.024,0.144 l 0,-1.28 c 0.341332,-0.096 0.730664,-0.14399 1.168,-0.144 1.418663,10e-6 2.127995,0.80001 2.128,2.4 l 0,5.936 m -1.584,-1.696 0,-3.216 c -0.20267,0.0213 -0.410669,0.21334 -0.624,0.576 -0.288002,0.45867 -0.432002,1.02934 -0.432,1.712 -2e-6,0.928 0.191998,1.392 0.576,1.392 0.21333,0 0.37333,-0.15466 0.48,-0.464"
         id="path3320"
         style="marker:none" />
      <path
         d="m 87.821533,955.9483 -1.584,0 0,-5.904 c -4e-6,-0.29866 -0.05867,-0.54932 -0.176,-0.752 -0.117337,-0.21332 -0.26667,-0.31999 -0.448,-0.32 -0.192003,10e-6 -0.346669,0.10668 -0.464,0.32 -0.117336,0.20268 -0.176003,0.45334 -0.176,0.752 l 0,5.904 -1.584,0 0,-8.256 1.456,0 0,0.432 0.496,-0.496 c 0.05333,-0.0107 0.143997,-0.016 0.272,-0.016 1.471995,10e-6 2.207995,0.96001 2.208,2.88 l 0,5.456"
         id="path3322"
         style="marker:none" />
      <path
         d="m 93.304033,955.9483 -1.488,0 0,-0.432 -0.48,0.496 c -0.05334,0.0107 -0.12267,0.016 -0.208,0.016 -0.682669,0 -1.226669,-0.288 -1.632,-0.864 -0.469334,-0.66133 -0.704001,-1.61599 -0.704,-2.864 -10e-7,-1.56799 0.399999,-2.77866 1.2,-3.632 0.522664,-0.55466 1.098664,-0.87999 1.728,-0.976 l 0,-4.096 1.584,0 0,12.352 m -1.584,-1.68 0,-5.2 c -0.885336,0.29868 -1.328002,1.47201 -1.328,3.52 -2e-6,0.64001 0.07466,1.15734 0.224,1.552 0.159997,0.384 0.35733,0.576 0.592,0.576 0.24533,0 0.415996,-0.14933 0.512,-0.448"
         id="path3324"
         style="marker:none" />
      <path
         d="m 100.54203,955.9483 -1.471997,0 0,-0.496 -0.528,0.544 c -0.064,0.0213 -0.144003,0.032 -0.24,0.032 -0.512002,0 -0.960002,-0.256 -1.344,-0.768 -0.384001,-0.52266 -0.576001,-1.16799 -0.576,-1.936 -1e-6,-1.11999 0.341332,-2.02666 1.024,-2.72 0.501331,-0.50132 1.018664,-0.78932 1.552,-0.864 l 0,-0.16 c -3e-6,-0.45866 -0.229336,-0.68799 -0.688,-0.688 -0.330669,10e-6 -0.672002,0.048 -1.024,0.144 l 0,-1.28 c 0.341332,-0.096 0.730664,-0.14399 1.168,-0.144 1.418663,10e-6 2.127997,0.80001 2.127997,2.4 l 0,5.936 m -1.583997,-1.696 0,-3.216 c -0.20267,0.0213 -0.410669,0.21334 -0.624,0.576 -0.288002,0.45867 -0.432002,1.02934 -0.432,1.712 -2e-6,0.928 0.191998,1.392 0.576,1.392 0.21333,0 0.37333,-0.15466 0.48,-0.464"
         id="path3326"
         style="marker:none" />
      <path
         d="m 105.04678,955.9643 c -0.21333,0.0427 -0.46933,0.064 -0.768,0.064 -0.59733,0 -1.136,-0.22933 -1.616,-0.688 -0.768,-0.72533 -1.152,-1.89866 -1.152,-3.52 0,-1.62132 0.384,-2.79466 1.152,-3.52 0.48,-0.45866 1.01867,-0.68799 1.616,-0.688 0.29867,10e-6 0.54933,0.0213 0.752,0.064 l 0,1.248 c -0.128,-0.0213 -0.288,-0.032 -0.48,-0.032 -0.36267,10e-6 -0.66667,0.18134 -0.912,0.544 -0.352,0.50134 -0.528,1.29601 -0.528,2.384 0,1.08801 0.176,1.88267 0.528,2.384 0.24533,0.36267 0.54933,0.544 0.912,0.544 0.20267,0 0.368,-0.0107 0.496,-0.032 l 0,1.248"
         id="path3328"
         style="marker:none" />
      <path
         d="m 108.97828,955.9003 c -0.18133,0.032 -0.36267,0.048 -0.544,0.048 -0.608,0 -1.11467,-0.192 -1.52,-0.576 -0.56533,-0.53333 -0.848,-1.40799 -0.848,-2.624 l 0,-3.696 -0.528,0 0,-1.36 0.544,0 0,-1.904 1.504,0 0,1.904 1.216,0 0,1.36 -1.152,0 0,3.952 c 0,1.10934 0.32,1.664 0.96,1.664 0.096,0 0.21867,-0.0107 0.368,-0.032 l 0,1.264"
         id="path3330"
         style="marker:none" />
      <path
         d="m 111.31953,946.3323 -1.456,0 0,-2.24 1.456,0 0,2.24 m 0.064,9.616 -1.584,0 0,-8.256 1.584,0 0,8.256"
         id="path3332"
         style="marker:none" />
      <path
         d="m 117.18278,951.8203 c 0,1.64267 -0.288,2.81067 -0.864,3.504 -0.384,0.46934 -0.87467,0.704 -1.472,0.704 -0.58667,0 -1.07733,-0.23466 -1.472,-0.704 -0.576,-0.69333 -0.864,-1.86133 -0.864,-3.504 0,-1.64266 0.288,-2.81066 0.864,-3.504 0.39467,-0.46932 0.88533,-0.70399 1.472,-0.704 0.59733,10e-6 1.088,0.23468 1.472,0.704 0.576,0.69334 0.864,1.86134 0.864,3.504 m -1.584,0 c 0,-1.89866 -0.25067,-2.84799 -0.752,-2.848 -0.49067,10e-6 -0.736,0.94934 -0.736,2.848 0,1.89867 0.24533,2.848 0.736,2.848 0.50133,0 0.752,-0.94933 0.752,-2.848"
         id="path3334"
         style="marker:none" />
      <path
         d="m 122.57153,955.9483 -1.584,0 0,-5.904 c 0,-0.29866 -0.0587,-0.54932 -0.176,-0.752 -0.11733,-0.21332 -0.26667,-0.31999 -0.448,-0.32 -0.192,10e-6 -0.34667,0.10668 -0.464,0.32 -0.11733,0.20268 -0.176,0.45334 -0.176,0.752 l 0,5.904 -1.584,0 0,-8.256 1.456,0 0,0.432 0.496,-0.496 c 0.0533,-0.0107 0.144,-0.016 0.272,-0.016 1.472,10e-6 2.208,0.96001 2.208,2.88 l 0,5.456"
         id="path3336"
         style="marker:none" />
      <path
         d="m 128.97903,944.8283 c -0.128,-0.0213 -0.23467,-0.032 -0.32,-0.032 -0.672,10e-6 -1.008,0.59201 -1.008,1.776 l 0,1.12 1.248,0 0,1.36 -1.248,0 0,6.896 -1.584,0 0,-6.896 -0.528,0 0,-1.36 0.528,0 0,-1.024 c 0,-1.19465 0.28267,-2.05332 0.848,-2.576 0.40533,-0.37332 0.91733,-0.55998 1.536,-0.56 0.17067,2e-5 0.34667,0.016 0.528,0.048 l 0,1.248"
         id="path3338"
         style="marker:none" />
      <path
         d="m 133.83903,951.8203 c 0,1.64267 -0.288,2.81067 -0.864,3.504 -0.384,0.46934 -0.87467,0.704 -1.472,0.704 -0.58667,0 -1.07733,-0.23466 -1.472,-0.704 -0.576,-0.69333 -0.864,-1.86133 -0.864,-3.504 0,-1.64266 0.288,-2.81066 0.864,-3.504 0.39467,-0.46932 0.88533,-0.70399 1.472,-0.704 0.59733,10e-6 1.088,0.23468 1.472,0.704 0.576,0.69334 0.864,1.86134 0.864,3.504 m -1.584,0 c 0,-1.89866 -0.25067,-2.84799 -0.752,-2.848 -0.49067,10e-6 -0.736,0.94934 -0.736,2.848 0,1.89867 0.24533,2.848 0.736,2.848 0.50133,0 0.752,-0.94933 0.752,-2.848"
         id="path3340"
         style="marker:none" />
      <path
         d="m 137.86778,949.0523 -0.192,0 c -0.384,1e-5 -0.69867,0.14401 -0.944,0.432 -0.23467,0.28801 -0.352,0.67201 -0.352,1.152 l 0,5.312 -1.584,0 0,-8.256 1.504,0 0,0.656 c 0.29867,-0.43732 0.72533,-0.65599 1.28,-0.656 l 0.288,0 0,1.36"
         id="path3342"
         style="marker:none" />
      <path
         d="m 143.66578,955.9003 c -0.18133,0.032 -0.36267,0.048 -0.544,0.048 -0.608,0 -1.11467,-0.192 -1.52,-0.576 -0.56533,-0.53333 -0.848,-1.40799 -0.848,-2.624 l 0,-3.696 -0.528,0 0,-1.36 0.544,0 0,-1.904 1.504,0 0,1.904 1.216,0 0,1.36 -1.152,0 0,3.952 c 0,1.10934 0.32,1.664 0.96,1.664 0.096,0 0.21867,-0.0107 0.368,-0.032 l 0,1.264"
         id="path3344"
         style="marker:none" />
      <path
         d="m 148.91903,955.9483 -1.584,0 0,-5.904 c 0,-0.29866 -0.0587,-0.54932 -0.176,-0.752 -0.11733,-0.21332 -0.26667,-0.31999 -0.448,-0.32 -0.192,10e-6 -0.34667,0.10668 -0.464,0.32 -0.11733,0.20268 -0.176,0.45334 -0.176,0.752 l 0,5.904 -1.584,0 0,-12.352 1.52,0 0,4.464 0.432,-0.432 c 0.0533,-0.0107 0.144,-0.016 0.272,-0.016 1.472,10e-6 2.208,0.96001 2.208,2.88 l 0,5.456"
         id="path3346"
         style="marker:none" />
      <path
         d="m 154.07778,949.9963 c 0,0.91734 -0.32533,1.67467 -0.976,2.272 -0.512,0.48001 -1.02933,0.74134 -1.552,0.784 0.0747,1.13067 0.44267,1.696 1.104,1.696 0.224,0 0.384,-0.0107 0.48,-0.032 l 0,1.248 c -0.192,0.0427 -0.39467,0.064 -0.608,0.064 -1.76,0 -2.64,-1.408 -2.64,-4.224 0,-2.79466 0.76267,-4.19199 2.288,-4.192 0.49067,10e-6 0.912,0.18134 1.264,0.544 0.42666,0.42668 0.64,1.04001 0.64,1.84 m -1.472,-0.096 c 0,-0.69332 -0.14933,-1.03999 -0.448,-1.04 -0.45867,10e-6 -0.688,0.83734 -0.688,2.512 0,0.19201 0.005,0.32534 0.016,0.4 0.256,-0.0213 0.50133,-0.19733 0.736,-0.528 0.256,-0.37333 0.384,-0.82132 0.384,-1.344"
         id="path3348"
         style="marker:none" />
      <path
         d="m 161.36653,956.0763 c 0,1.792 -0.752,2.688 -2.256,2.688 -0.24533,0 -0.50667,-0.0267 -0.784,-0.08 l 0,-1.28 c 0.23467,0.064 0.45333,0.096 0.656,0.096 0.53333,0 0.8,-0.26666 0.8,-0.8 l 0,-0.752 c -0.62933,-0.096 -1.20533,-0.42133 -1.728,-0.976 -0.8,-0.85333 -1.2,-2.06399 -1.2,-3.632 0,-1.24799 0.23467,-2.20266 0.704,-2.864 0.40533,-0.57599 0.94933,-0.86399 1.632,-0.864 0.0853,10e-6 0.15467,0.005 0.208,0.016 l 0.48,0.496 0,-0.432 1.488,0 0,8.384 m -1.584,-1.504 0,-5.2 c -0.096,-0.29866 -0.26667,-0.44799 -0.512,-0.448 -0.23467,10e-6 -0.432,0.19734 -0.592,0.592 -0.14933,0.38401 -0.224,0.89601 -0.224,1.536 0,2.04801 0.44267,3.22134 1.328,3.52"
         id="path3350"
         style="marker:none" />
      <path
         d="m 164.22728,955.9483 -1.584,0 0,-12.352 1.584,0 0,12.352"
         id="path3352"
         style="marker:none" />
      <path
         d="m 170.02653,951.8203 c 0,1.64267 -0.288,2.81067 -0.864,3.504 -0.384,0.46934 -0.87467,0.704 -1.472,0.704 -0.58667,0 -1.07733,-0.23466 -1.472,-0.704 -0.576,-0.69333 -0.864,-1.86133 -0.864,-3.504 0,-1.64266 0.288,-2.81066 0.864,-3.504 0.39467,-0.46932 0.88533,-0.70399 1.472,-0.704 0.59733,10e-6 1.088,0.23468 1.472,0.704 0.576,0.69334 0.864,1.86134 0.864,3.504 m -1.584,0 c 0,-1.89866 -0.25067,-2.84799 -0.752,-2.848 -0.49067,10e-6 -0.736,0.94934 -0.736,2.848 0,1.89867 0.24533,2.848 0.736,2.848 0.50133,0 0.752,-0.94933 0.752,-2.848"
         id="path3354"
         style="marker:none" />
      <path
         d="m 175.65528,952.3003 c 0,1.24801 -0.23467,2.20267 -0.704,2.864 -0.40533,0.576 -0.94933,0.864 -1.632,0.864 -0.0853,0 -0.15467,-0.005 -0.208,-0.016 l -0.48,-0.496 0,0.432 -1.488,0 0,-12.352 1.584,0 0,4.096 c 0.62933,0.096 1.20533,0.42134 1.728,0.976 0.8,0.85334 1.2,2.06401 1.2,3.632 m -1.6,0.288 c 0,-2.04799 -0.44267,-3.22132 -1.328,-3.52 l 0,5.2 c 0.096,0.29867 0.26667,0.448 0.512,0.448 0.23467,0 0.42667,-0.192 0.576,-0.576 0.16,-0.39466 0.24,-0.91199 0.24,-1.552"
         id="path3356"
         style="marker:none" />
      <path
         d="m 180.44828,955.9483 -1.472,0 0,-0.496 -0.528,0.544 c -0.064,0.0213 -0.144,0.032 -0.24,0.032 -0.512,0 -0.96,-0.256 -1.344,-0.768 -0.384,-0.52266 -0.576,-1.16799 -0.576,-1.936 0,-1.11999 0.34134,-2.02666 1.024,-2.72 0.50133,-0.50132 1.01867,-0.78932 1.552,-0.864 l 0,-0.16 c 0,-0.45866 -0.22933,-0.68799 -0.688,-0.688 -0.33067,10e-6 -0.672,0.048 -1.024,0.144 l 0,-1.28 c 0.34133,-0.096 0.73067,-0.14399 1.168,-0.144 1.41867,10e-6 2.128,0.80001 2.128,2.4 l 0,5.936 m -1.584,-1.696 0,-3.216 c -0.20267,0.0213 -0.41067,0.21334 -0.624,0.576 -0.288,0.45867 -0.432,1.02934 -0.432,1.712 0,0.928 0.192,1.392 0.576,1.392 0.21333,0 0.37333,-0.15466 0.48,-0.464"
         id="path3358"
         style="marker:none" />
      <path
         d="m 183.32103,955.9483 -1.584,0 0,-12.352 1.584,0 0,12.352"
         id="path3360"
         style="marker:none" />
      <path
         d="m 188.41328,946.3323 -1.456,0 0,-2.24 1.456,0 0,2.24 m 0.064,9.232 c 0,1.216 -0.28267,2.096 -0.848,2.64 -0.39467,0.37333 -0.90133,0.56 -1.52,0.56 -0.18133,0 -0.36266,-0.016 -0.544,-0.048 l 0,-1.264 c 0.128,0.0213 0.24,0.032 0.336,0.032 0.66134,0 0.992,-0.55466 0.992,-1.664 l 0,-8.128 1.584,0 0,7.872"
         id="path3362"
         style="marker:none" />
      <path
         d="m 194.19653,953.1483 c 0,0.94934 -0.20267,1.66934 -0.608,2.16 -0.39467,0.48 -0.928,0.72 -1.6,0.72 -0.68267,0 -1.216,-0.23466 -1.6,-0.704 -0.416,-0.50133 -0.624,-1.22666 -0.624,-2.176 l 0,-5.456 1.584,0 0,5.904 c 0,0.29867 0.0587,0.55467 0.176,0.768 0.11733,0.20267 0.272,0.304 0.464,0.304 0.18133,0 0.33067,-0.10133 0.448,-0.304 0.11733,-0.21333 0.176,-0.46933 0.176,-0.768 l 0,-5.904 1.584,0 0,5.456"
         id="path3364"
         style="marker:none" />
      <path
         d="m 198.83103,953.6283 c 0,0.69334 -0.24,1.26934 -0.72,1.728 -0.46933,0.448 -1.04533,0.672 -1.728,0.672 -0.55467,0 -1.04,-0.0907 -1.456,-0.272 l 0.624,-1.232 c 0.192,0.096 0.42133,0.144 0.688,0.144 0.24533,0 0.45333,-0.08 0.624,-0.24 0.18133,-0.17066 0.272,-0.37866 0.272,-0.624 0,-0.56533 -0.26133,-1.14133 -0.784,-1.728 -0.50133,-0.55466 -0.832,-0.98133 -0.992,-1.28 -0.18133,-0.34132 -0.272,-0.71466 -0.272,-1.12 0,-0.58666 0.208,-1.07732 0.624,-1.472 0.416,-0.39466 0.928,-0.59199 1.536,-0.592 0.42667,10e-6 0.848,0.08 1.264,0.24 l -0.576,1.168 c -0.14933,-0.0747 -0.34667,-0.11199 -0.592,-0.112 -0.17067,10e-6 -0.32,0.064 -0.448,0.192 -0.128,0.11734 -0.192,0.26134 -0.192,0.432 0,0.35201 0.25067,0.77868 0.752,1.28 0.50133,0.50134 0.848,0.94401 1.04,1.328 0.224,0.43734 0.336,0.93334 0.336,1.488"
         id="path3366"
         style="marker:none" />
      <path
         d="m 202.72828,955.9003 c -0.18133,0.032 -0.36267,0.048 -0.544,0.048 -0.608,0 -1.11467,-0.192 -1.52,-0.576 -0.56533,-0.53333 -0.848,-1.40799 -0.848,-2.624 l 0,-3.696 -0.528,0 0,-1.36 0.544,0 0,-1.904 1.504,0 0,1.904 1.216,0 0,1.36 -1.152,0 0,3.952 c 0,1.10934 0.32,1.664 0.96,1.664 0.096,0 0.21867,-0.0107 0.368,-0.032 l 0,1.264"
         id="path3368"
         style="marker:none" />
      <path
         d="m 205.06953,946.3323 -1.456,0 0,-2.24 1.456,0 0,2.24 m 0.064,9.616 -1.584,0 0,-8.256 1.584,0 0,8.256"
         id="path3370"
         style="marker:none" />
      <path
         d="m 209.79678,955.9643 c -0.21333,0.0427 -0.46933,0.064 -0.768,0.064 -0.59733,0 -1.136,-0.22933 -1.616,-0.688 -0.768,-0.72533 -1.152,-1.89866 -1.152,-3.52 0,-1.62132 0.384,-2.79466 1.152,-3.52 0.48,-0.45866 1.01867,-0.68799 1.616,-0.688 0.29867,10e-6 0.54933,0.0213 0.752,0.064 l 0,1.248 c -0.128,-0.0213 -0.288,-0.032 -0.48,-0.032 -0.36267,10e-6 -0.66667,0.18134 -0.912,0.544 -0.352,0.50134 -0.528,1.29601 -0.528,2.384 0,1.08801 0.176,1.88267 0.528,2.384 0.24533,0.36267 0.54933,0.544 0.912,0.544 0.20267,0 0.368,-0.0107 0.496,-0.032 l 0,1.248"
         id="path3372"
         style="marker:none" />
      <path
         d="m 214.64028,949.9963 c 0,0.91734 -0.32533,1.67467 -0.976,2.272 -0.512,0.48001 -1.02933,0.74134 -1.552,0.784 0.0747,1.13067 0.44267,1.696 1.104,1.696 0.224,0 0.384,-0.0107 0.48,-0.032 l 0,1.248 c -0.192,0.0427 -0.39467,0.064 -0.608,0.064 -1.76,0 -2.64,-1.408 -2.64,-4.224 0,-2.79466 0.76267,-4.19199 2.288,-4.192 0.49067,10e-6 0.912,0.18134 1.264,0.544 0.42666,0.42668 0.64,1.04001 0.64,1.84 m -1.472,-0.096 c 0,-0.69332 -0.14933,-1.03999 -0.448,-1.04 -0.45867,10e-6 -0.688,0.83734 -0.688,2.512 0,0.19201 0.005,0.32534 0.016,0.4 0.256,-0.0213 0.50133,-0.19733 0.736,-0.528 0.256,-0.37333 0.384,-0.82132 0.384,-1.344"
         id="path3374"
         style="marker:none" />
    </g>
    <g
       id="text4123"
       style="font-size:32px;font-style:normal;font-variant:normal;font-weight:bold;font-stretch:normal;text-align:start;line-height:125%;letter-spacing:0px;word-spacing:0px;writing-mode:lr-tb;text-anchor:start;fill:#1a1a1a;fill-opacity:1;stroke:none;font-family:Sans;-inkscape-font-specification:Sans Bold">
      <path
         d="m 23.351294,1022.8271 6.71875,0 8.484375,16 0,-16 5.703125,0 0,23.3282 -6.71875,0 -8.484375,-16 0,16 -5.703125,0 0,-23.3282"
         id="path3291" />
      <path
         d="m 50.163794,1022.8271 6.015625,0 0,23.3282 -6.015625,0 0,-23.3282"
         id="path3293" />
    </g>
    <g
       id="text4123-5"
       style="font-size:32px;font-style:normal;font-variant:normal;font-weight:bold;font-stretch:normal;text-align:start;line-height:125%;letter-spacing:0px;word-spacing:0px;writing-mode:lr-tb;text-anchor:start;fill:#a30c0c;fill-opacity:1;stroke:none;font-family:Sans;-inkscape-font-specification:Sans Bold">
      <path
         d="m 83.351288,1022.8271 6.71875,0 8.484375,16 0,-16 5.703127,0 0,23.3282 -6.718752,0 -8.484375,-16 0,16 -5.703125,0 0,-23.3282"
         id="path3286"
         style="fill:#a30c0c" />
      <path
         d="m 110.16379,1022.8271 6.01562,0 0,23.3282 -6.01562,0 0,-23.3282"
         id="path3288"
         style="fill:#a30c0c" />
    </g>
    <g
       id="text4123-5-0"
       style="font-size:32px;font-style:normal;font-variant:normal;font-weight:bold;font-stretch:normal;text-indent:0;text-align:start;text-decoration:none;line-height:125%;letter-spacing:0px;word-spacing:0px;text-transform:none;direction:ltr;block-progression:tb;writing-mode:lr-tb;text-anchor:start;baseline-shift:baseline;color:#000000;fill:#f9f9f9;fill-opacity:1;fill-rule:nonzero;stroke:none;marker:none;visibility:visible;display:inline;overflow:visible;enable-background:accumulate;font-family:Sans;-inkscape-font-specification:Sans Bold">
      <path
         d="m 143.35129,1022.8271 6.71875,0 8.48437,16 0,-16 5.70313,0 0,23.3282 -6.71875,0 -8.48438,-16 0,16 -5.70312,0 0,-23.3282"
         id="path3281"
         style="line-height:125%;color:#000000;fill:#f9f9f9;marker:none;visibility:visible;display:inline;overflow:visible;enable-background:accumulate;font-family:Sans;-inkscape-font-specification:Sans Bold" />
      <path
         d="m 170.16379,1022.8271 6.01562,0 0,23.3282 -6.01562,0 0,-23.3282"
         id="path3283"
         style="line-height:125%;color:#000000;fill:#f9f9f9;marker:none;visibility:visible;display:inline;overflow:visible;enable-background:accumulate;font-family:Sans;-inkscape-font-specification:Sans Bold" />
    </g>
    <g
       id="text4119-3"
       style="font-size:16px;font-style:normal;font-variant:normal;font-weight:normal;font-stretch:normal;text-align:start;line-height:125%;letter-spacing:0px;word-spacing:0px;writing-mode:lr-tb;text-anchor:start;fill:#a30c0c;fill-opacity:1;stroke:none;font-family:BodegaSans Medium;-inkscape-font-specification:'BodegaSans Medium,'">
      <path
         d="m 23.584,1001.7701 c -6e-6,1.4187 -0.437338,2.5814 -1.312,3.488 -0.576004,0.5867 -1.184003,0.9654 -1.824,1.136 l 0,3.968 -1.696,0 0,-12.35198 1.296,0 c 1.01333,10e-6 1.829329,0.27201 2.448,0.816 0.725328,0.65068 1.087994,1.63198 1.088,2.94398 m -1.712,-0.016 c -4e-6,-1.5786 -0.47467,-2.36797 -1.424,-2.36798 l 0,5.43998 c 0.266664,-0.043 0.543997,-0.2826 0.832,-0.72 0.394663,-0.5973 0.591996,-1.3813 0.592,-2.352"
         id="path3200" />
      <path
         d="m 28.37325,1004.4101 c -5e-6,0.9174 -0.325338,1.6747 -0.976,2.272 -0.512003,0.48 -1.029336,0.7414 -1.552,0.784 0.07466,1.1307 0.442664,1.696 1.104,1.696 0.223997,0 0.383996,-0.011 0.48,-0.032 l 0,1.248 c -0.192003,0.043 -0.39467,0.064 -0.608,0.064 -1.760001,0 -2.64,-1.408 -2.64,-4.224 0,-2.7946 0.762666,-4.192 2.288,-4.192 0.490663,0 0.911996,0.1814 1.264,0.544 0.426662,0.4267 0.639995,1.04 0.64,1.84 m -1.472,-0.096 c -3e-6,-0.6933 -0.149336,-1.04 -0.448,-1.04 -0.458669,0 -0.688002,0.8374 -0.688,2.512 -2e-6,0.192 0.0053,0.3254 0.016,0.4 0.255998,-0.021 0.501331,-0.1973 0.736,-0.528 0.255997,-0.3733 0.383997,-0.8213 0.384,-1.344"
         id="path3202" />
      <path
         d="m 33.697,1006.2341 c -5e-6,1.6427 -0.288005,2.8107 -0.864,3.504 -0.384004,0.4694 -0.87467,0.704 -1.472,0.704 -0.586669,0 -1.077335,-0.2346 -1.472,-0.704 -0.576001,-0.6933 -0.864,-1.8613 -0.864,-3.504 0,-1.6426 0.287999,-2.8106 0.864,-3.504 0.394665,-0.4693 0.885331,-0.704 1.472,-0.704 0.59733,0 1.087996,0.2347 1.472,0.704 0.575995,0.6934 0.863995,1.8614 0.864,3.504 m -1.584,0 c -3e-6,-1.8986 -0.25067,-2.848 -0.752,-2.848 -0.490669,0 -0.736002,0.9494 -0.736,2.848 -2e-6,1.8987 0.245331,2.848 0.736,2.848 0.50133,0 0.751997,-0.9493 0.752,-2.848"
         id="path3204" />
      <path
         d="m 39.16575,1005.7541 c -5e-6,1.568 -0.400005,2.7787 -1.2,3.632 -0.52267,0.5547 -1.098669,0.88 -1.728,0.976 l 0,2.736 -1.584,0 0,-10.992 1.488,0 0,0.432 0.48,-0.496 c 0.05333,-0.011 0.122664,-0.016 0.208,-0.016 0.682663,0 1.226663,0.288 1.632,0.864 0.469328,0.6614 0.703995,1.616 0.704,2.864 m -1.6,-0.288 c -3e-6,-0.64 -0.08,-1.152 -0.24,-1.536 -0.149336,-0.3946 -0.341336,-0.592 -0.576,-0.592 -0.245336,0 -0.416002,0.1494 -0.512,0.448 l 0,5.2 c 0.88533,-0.2986 1.327997,-1.472 1.328,-3.52"
         id="path3206" />
      <path
         d="m 41.89775,1010.3621 -1.584,0 0,-12.35198 1.584,0 0,12.35198"
         id="path3208" />
      <path
         d="m 47.217,1004.4101 c -5e-6,0.9174 -0.325338,1.6747 -0.976,2.272 -0.512003,0.48 -1.029336,0.7414 -1.552,0.784 0.07467,1.1307 0.442664,1.696 1.104,1.696 0.223997,0 0.383996,-0.011 0.48,-0.032 l 0,1.248 c -0.192003,0.043 -0.39467,0.064 -0.608,0.064 -1.760001,0 -2.64,-1.408 -2.64,-4.224 0,-2.7946 0.762666,-4.192 2.288,-4.192 0.490663,0 0.911996,0.1814 1.264,0.544 0.426662,0.4267 0.639995,1.04 0.64,1.84 m -1.472,-0.096 c -3e-6,-0.6933 -0.149336,-1.04 -0.448,-1.04 -0.458669,0 -0.688002,0.8374 -0.688,2.512 -2e-6,0.192 0.0053,0.3254 0.016,0.4 0.255998,-0.021 0.501331,-0.1973 0.736,-0.528 0.255997,-0.3733 0.383997,-0.8213 0.384,-1.344"
         id="path3210" />
      <path
         d="m 49.88475,1008.4421 -0.832,4.176 -0.976,0 0,-4.544 1.808,0.368"
         id="path3212" />
      <path
         d="m 54.6775,1000.7461 -1.456,0 0,-2.23998 1.456,0 0,2.23998 m 0.064,9.616 -1.584,0 0,-8.256 1.584,0 0,8.256"
         id="path3214" />
      <path
         d="m 60.38075,1010.3621 -1.488,0 0,-0.432 -0.48,0.496 c -0.05334,0.011 -0.122669,0.016 -0.208,0.016 -0.682669,0 -1.226668,-0.288 -1.632,-0.864 -0.469334,-0.6613 -0.704,-1.616 -0.704,-2.864 0,-1.568 0.399999,-2.7786 1.2,-3.632 0.522665,-0.5546 1.098664,-0.88 1.728,-0.976 l 0,-4.09598 1.584,0 0,12.35198 m -1.584,-1.68 0,-5.2 c -0.885336,0.2987 -1.328002,1.472 -1.328,3.52 -2e-6,0.64 0.07467,1.1574 0.224,1.552 0.159998,0.384 0.357331,0.576 0.592,0.576 0.24533,0 0.415997,-0.1493 0.512,-0.448"
         id="path3216" />
      <path
         d="m 65.68575,1004.4101 c -5e-6,0.9174 -0.325338,1.6747 -0.976,2.272 -0.512003,0.48 -1.029336,0.7414 -1.552,0.784 0.07467,1.1307 0.442664,1.696 1.104,1.696 0.223997,0 0.383996,-0.011 0.48,-0.032 l 0,1.248 c -0.192003,0.043 -0.39467,0.064 -0.608,0.064 -1.760001,0 -2.64,-1.408 -2.64,-4.224 0,-2.7946 0.762666,-4.192 2.288,-4.192 0.490663,0 0.911996,0.1814 1.264,0.544 0.426662,0.4267 0.639995,1.04 0.64,1.84 m -1.472,-0.096 c -3e-6,-0.6933 -0.149336,-1.04 -0.448,-1.04 -0.458669,0 -0.688002,0.8374 -0.688,2.512 -2e-6,0.192 0.0053,0.3254 0.016,0.4 0.255998,-0.021 0.501331,-0.1973 0.736,-0.528 0.255997,-0.3733 0.383997,-0.8213 0.384,-1.344"
         id="path3218" />
      <path
         d="m 70.3375,1010.3621 -1.472,0 0,-0.496 -0.528,0.544 c -0.064,0.021 -0.144002,0.032 -0.24,0.032 -0.512002,0 -0.960001,-0.256 -1.344,-0.768 -0.384,-0.5226 -0.576,-1.168 -0.576,-1.936 0,-1.12 0.341333,-2.0266 1.024,-2.72 0.501332,-0.5013 1.018664,-0.7893 1.552,-0.864 l 0,-0.16 c -3e-6,-0.4586 -0.229336,-0.688 -0.688,-0.688 -0.330668,0 -0.672001,0.048 -1.024,0.144 l 0,-1.28 c 0.341332,-0.096 0.730665,-0.144 1.168,-0.144 1.418663,0 2.127996,0.8 2.128,2.4 l 0,5.936 m -1.584,-1.696 0,-3.216 c -0.202669,0.021 -0.410669,0.2134 -0.624,0.576 -0.288002,0.4587 -0.432002,1.0294 -0.432,1.712 -2e-6,0.928 0.191998,1.392 0.576,1.392 0.213331,0 0.373331,-0.1546 0.48,-0.464"
         id="path3220" />
      <path
         d="m 74.97025,1008.0421 c -4e-6,0.6934 -0.240004,1.2694 -0.72,1.728 -0.469336,0.448 -1.045336,0.672 -1.728,0.672 -0.554668,0 -1.040001,-0.091 -1.456,-0.272 l 0.624,-1.232 c 0.191999,0.096 0.421332,0.144 0.688,0.144 0.245332,0 0.453331,-0.08 0.624,-0.24 0.181331,-0.1706 0.271998,-0.3786 0.272,-0.624 -2e-6,-0.5653 -0.261335,-1.1413 -0.784,-1.728 -0.501334,-0.5546 -0.832001,-0.9813 -0.992,-1.28 -0.181334,-0.3413 -0.272,-0.7146 -0.272,-1.12 0,-0.5866 0.207999,-1.0773 0.624,-1.472 0.415999,-0.3946 0.927998,-0.592 1.536,-0.592 0.426664,0 0.847997,0.08 1.264,0.24 l -0.576,1.168 c -0.149336,-0.075 -0.346669,-0.112 -0.592,-0.112 -0.170669,0 -0.320002,0.064 -0.448,0.192 -0.128002,0.1174 -0.192002,0.2614 -0.192,0.432 -2e-6,0.352 0.250664,0.7787 0.752,1.28 0.50133,0.5014 0.847996,0.944 1.04,1.328 0.223996,0.4374 0.335996,0.9334 0.336,1.488"
         id="path3222" />
      <path
         d="m 81.7125,1010.3621 -1.472,0 0,-0.496 -0.528,0.544 c -0.064,0.021 -0.144002,0.032 -0.24,0.032 -0.512002,0 -0.960001,-0.256 -1.344,-0.768 -0.384,-0.5226 -0.576,-1.168 -0.576,-1.936 0,-1.12 0.341333,-2.0266 1.024,-2.72 0.501332,-0.5013 1.018664,-0.7893 1.552,-0.864 l 0,-0.16 c -3e-6,-0.4586 -0.229336,-0.688 -0.688,-0.688 -0.330668,0 -0.672001,0.048 -1.024,0.144 l 0,-1.28 c 0.341332,-0.096 0.730665,-0.144 1.168,-0.144 1.418663,0 2.127996,0.8 2.128,2.4 l 0,5.936 m -1.584,-1.696 0,-3.216 c -0.202669,0.021 -0.410669,0.2134 -0.624,0.576 -0.288002,0.4587 -0.432002,1.0294 -0.432,1.712 -2e-6,0.928 0.191998,1.392 0.576,1.392 0.213331,0 0.373331,-0.1546 0.48,-0.464"
         id="path3224" />
      <path
         d="m 87.27325,1010.3621 -1.584,0 0,-5.904 c -3e-6,-0.2986 -0.05867,-0.5493 -0.176,-0.752 -0.117336,-0.2133 -0.26667,-0.32 -0.448,-0.32 -0.192003,0 -0.346669,0.1067 -0.464,0.32 -0.117336,0.2027 -0.176002,0.4534 -0.176,0.752 l 0,5.904 -1.584,0 0,-8.256 1.456,0 0,0.432 0.496,-0.496 c 0.05333,-0.011 0.143997,-0.016 0.272,-0.016 1.471996,0 2.207995,0.96 2.208,2.88 l 0,5.456"
         id="path3226" />
      <path
         d="m 92.75575,1010.3621 -1.488,0 0,-0.432 -0.48,0.496 c -0.05334,0.011 -0.122669,0.016 -0.208,0.016 -0.682669,0 -1.226668,-0.288 -1.632,-0.864 -0.469334,-0.6613 -0.704,-1.616 -0.704,-2.864 0,-1.568 0.399999,-2.7786 1.2,-3.632 0.522665,-0.5546 1.098664,-0.88 1.728,-0.976 l 0,-4.09598 1.584,0 0,12.35198 m -1.584,-1.68 0,-5.2 c -0.885336,0.2987 -1.328002,1.472 -1.328,3.52 -2e-6,0.64 0.07466,1.1574 0.224,1.552 0.159998,0.384 0.357331,0.576 0.592,0.576 0.24533,0 0.415997,-0.1493 0.512,-0.448"
         id="path3228" />
      <path
         d="m 99.99375,1010.3621 -1.472,0 0,-0.496 -0.528,0.544 c -0.064,0.021 -0.144002,0.032 -0.24,0.032 -0.512002,0 -0.960001,-0.256 -1.344,-0.768 -0.384,-0.5226 -0.576,-1.168 -0.576,-1.936 0,-1.12 0.341333,-2.0266 1.024,-2.72 0.501332,-0.5013 1.018664,-0.7893 1.552,-0.864 l 0,-0.16 c -3e-6,-0.4586 -0.229336,-0.688 -0.688,-0.688 -0.330668,0 -0.672001,0.048 -1.024,0.144 l 0,-1.28 c 0.341332,-0.096 0.730665,-0.144 1.168,-0.144 1.418663,0 2.127996,0.8 2.128,2.4 l 0,5.936 m -1.584,-1.696 0,-3.216 c -0.202669,0.021 -0.410669,0.2134 -0.624,0.576 -0.288002,0.4587 -0.432002,1.0294 -0.432,1.712 -2e-6,0.928 0.191998,1.392 0.576,1.392 0.213331,0 0.373331,-0.1546 0.48,-0.464"
         id="path3230" />
      <path
         d="m 104.4985,1010.3781 c -0.21334,0.043 -0.46934,0.064 -0.768,0.064 -0.59734,0 -1.136,-0.2293 -1.616,-0.688 -0.768,-0.7253 -1.152,-1.8986 -1.152,-3.52 0,-1.6213 0.384,-2.7946 1.152,-3.52 0.48,-0.4586 1.01866,-0.688 1.616,-0.688 0.29866,0 0.54933,0.021 0.752,0.064 l 0,1.248 c -0.128,-0.021 -0.288,-0.032 -0.48,-0.032 -0.36267,0 -0.66667,0.1814 -0.912,0.544 -0.352,0.5014 -0.528,1.296 -0.528,2.384 0,1.088 0.176,1.8827 0.528,2.384 0.24533,0.3627 0.54933,0.544 0.912,0.544 0.20266,0 0.368,-0.011 0.496,-0.032 l 0,1.248"
         id="path3232" />
      <path
         d="m 108.43,1010.3141 c -0.18134,0.032 -0.36267,0.048 -0.544,0.048 -0.608,0 -1.11467,-0.192 -1.52,-0.576 -0.56533,-0.5333 -0.848,-1.408 -0.848,-2.624 l 0,-3.696 -0.528,0 0,-1.36 0.544,0 0,-1.904 1.504,0 0,1.904 1.216,0 0,1.36 -1.152,0 0,3.952 c 0,1.1094 0.32,1.664 0.96,1.664 0.096,0 0.21866,-0.011 0.368,-0.032 l 0,1.264"
         id="path3234" />
      <path
         d="m 110.77125,1000.7461 -1.456,0 0,-2.23998 1.456,0 0,2.23998 m 0.064,9.616 -1.584,0 0,-8.256 1.584,0 0,8.256"
         id="path3236" />
      <path
         d="m 116.6345,1006.2341 c -1e-5,1.6427 -0.288,2.8107 -0.864,3.504 -0.384,0.4694 -0.87467,0.704 -1.472,0.704 -0.58667,0 -1.07733,-0.2346 -1.472,-0.704 -0.576,-0.6933 -0.864,-1.8613 -0.864,-3.504 0,-1.6426 0.288,-2.8106 0.864,-3.504 0.39467,-0.4693 0.88533,-0.704 1.472,-0.704 0.59733,0 1.088,0.2347 1.472,0.704 0.576,0.6934 0.86399,1.8614 0.864,3.504 m -1.584,0 c 0,-1.8986 -0.25067,-2.848 -0.752,-2.848 -0.49067,0 -0.736,0.9494 -0.736,2.848 0,1.8987 0.24533,2.848 0.736,2.848 0.50133,0 0.752,-0.9493 0.752,-2.848"
         id="path3238" />
      <path
         d="m 122.02325,1010.3621 -1.584,0 0,-5.904 c 0,-0.2986 -0.0587,-0.5493 -0.176,-0.752 -0.11734,-0.2133 -0.26667,-0.32 -0.448,-0.32 -0.192,0 -0.34667,0.1067 -0.464,0.32 -0.11734,0.2027 -0.176,0.4534 -0.176,0.752 l 0,5.904 -1.584,0 0,-8.256 1.456,0 0,0.432 0.496,-0.496 c 0.0533,-0.011 0.144,-0.016 0.272,-0.016 1.472,0 2.208,0.96 2.208,2.88 l 0,5.456"
         id="path3240" />
      <path
         d="m 128.43075,999.24212 c -0.128,-0.0213 -0.23467,-0.032 -0.32,-0.032 -0.672,1e-5 -1.008,0.59201 -1.008,1.77598 l 0,1.12 1.248,0 0,1.36 -1.248,0 0,6.896 -1.584,0 0,-6.896 -0.528,0 0,-1.36 0.528,0 0,-1.024 c 0,-1.19463 0.28267,-2.0533 0.848,-2.57598 0.40533,-0.37332 0.91733,-0.55999 1.536,-0.56 0.17066,1e-5 0.34666,0.016 0.528,0.048 l 0,1.248"
         id="path3242" />
      <path
         d="m 133.29075,1006.2341 c -1e-5,1.6427 -0.288,2.8107 -0.864,3.504 -0.384,0.4694 -0.87467,0.704 -1.472,0.704 -0.58667,0 -1.07733,-0.2346 -1.472,-0.704 -0.576,-0.6933 -0.864,-1.8613 -0.864,-3.504 0,-1.6426 0.288,-2.8106 0.864,-3.504 0.39467,-0.4693 0.88533,-0.704 1.472,-0.704 0.59733,0 1.088,0.2347 1.472,0.704 0.576,0.6934 0.86399,1.8614 0.864,3.504 m -1.584,0 c 0,-1.8986 -0.25067,-2.848 -0.752,-2.848 -0.49067,0 -0.736,0.9494 -0.736,2.848 0,1.8987 0.24533,2.848 0.736,2.848 0.50133,0 0.752,-0.9493 0.752,-2.848"
         id="path3244" />
      <path
         d="m 137.3195,1003.4661 -0.192,0 c -0.384,0 -0.69867,0.144 -0.944,0.432 -0.23467,0.288 -0.352,0.672 -0.352,1.152 l 0,5.312 -1.584,0 0,-8.256 1.504,0 0,0.656 c 0.29866,-0.4373 0.72533,-0.656 1.28,-0.656 l 0.288,0 0,1.36"
         id="path3246" />
      <path
         d="m 143.1175,1010.3141 c -0.18134,0.032 -0.36267,0.048 -0.544,0.048 -0.608,0 -1.11467,-0.192 -1.52,-0.576 -0.56533,-0.5333 -0.848,-1.408 -0.848,-2.624 l 0,-3.696 -0.528,0 0,-1.36 0.544,0 0,-1.904 1.504,0 0,1.904 1.216,0 0,1.36 -1.152,0 0,3.952 c 0,1.1094 0.32,1.664 0.96,1.664 0.096,0 0.21866,-0.011 0.368,-0.032 l 0,1.264"
         id="path3248" />
      <path
         d="m 148.37075,1010.3621 -1.584,0 0,-5.904 c 0,-0.2986 -0.0587,-0.5493 -0.176,-0.752 -0.11734,-0.2133 -0.26667,-0.32 -0.448,-0.32 -0.192,0 -0.34667,0.1067 -0.464,0.32 -0.11734,0.2027 -0.176,0.4534 -0.176,0.752 l 0,5.904 -1.584,0 0,-12.35198 1.52,0 0,4.46398 0.432,-0.432 c 0.0533,-0.011 0.144,-0.016 0.272,-0.016 1.472,0 2.20799,0.96 2.208,2.88 l 0,5.456"
         id="path3250" />
      <path
         d="m 153.5295,1004.4101 c 0,0.9174 -0.32534,1.6747 -0.976,2.272 -0.512,0.48 -1.02934,0.7414 -1.552,0.784 0.0747,1.1307 0.44266,1.696 1.104,1.696 0.224,0 0.384,-0.011 0.48,-0.032 l 0,1.248 c -0.192,0.043 -0.39467,0.064 -0.608,0.064 -1.76,0 -2.64,-1.408 -2.64,-4.224 0,-2.7946 0.76267,-4.192 2.288,-4.192 0.49066,0 0.912,0.1814 1.264,0.544 0.42666,0.4267 0.64,1.04 0.64,1.84 m -1.472,-0.096 c 0,-0.6933 -0.14934,-1.04 -0.448,-1.04 -0.45867,0 -0.688,0.8374 -0.688,2.512 0,0.192 0.005,0.3254 0.016,0.4 0.256,-0.021 0.50133,-0.1973 0.736,-0.528 0.256,-0.3733 0.384,-0.8213 0.384,-1.344"
         id="path3252" />
      <path
         d="m 160.81825,1010.4901 c 0,1.792 -0.752,2.688 -2.256,2.688 -0.24534,0 -0.50667,-0.027 -0.784,-0.08 l 0,-1.28 c 0.23466,0.064 0.45333,0.096 0.656,0.096 0.53333,0 0.8,-0.2666 0.8,-0.8 l 0,-0.752 c -0.62934,-0.096 -1.20534,-0.4213 -1.728,-0.976 -0.8,-0.8533 -1.2,-2.064 -1.2,-3.632 0,-1.248 0.23467,-2.2026 0.704,-2.864 0.40533,-0.576 0.94933,-0.864 1.632,-0.864 0.0853,0 0.15466,0.01 0.208,0.016 l 0.48,0.496 0,-0.432 1.488,0 0,8.384 m -1.584,-1.504 0,-5.2 c -0.096,-0.2986 -0.26667,-0.448 -0.512,-0.448 -0.23467,0 -0.432,0.1974 -0.592,0.592 -0.14934,0.384 -0.224,0.896 -0.224,1.536 0,2.048 0.44266,3.2214 1.328,3.52"
         id="path3254" />
      <path
         d="m 163.679,1010.3621 -1.584,0 0,-12.35198 1.584,0 0,12.35198"
         id="path3256" />
      <path
         d="m 169.47825,1006.2341 c -1e-5,1.6427 -0.288,2.8107 -0.864,3.504 -0.384,0.4694 -0.87467,0.704 -1.472,0.704 -0.58667,0 -1.07733,-0.2346 -1.472,-0.704 -0.576,-0.6933 -0.864,-1.8613 -0.864,-3.504 0,-1.6426 0.288,-2.8106 0.864,-3.504 0.39467,-0.4693 0.88533,-0.704 1.472,-0.704 0.59733,0 1.088,0.2347 1.472,0.704 0.576,0.6934 0.86399,1.8614 0.864,3.504 m -1.584,0 c 0,-1.8986 -0.25067,-2.848 -0.752,-2.848 -0.49067,0 -0.736,0.9494 -0.736,2.848 0,1.8987 0.24533,2.848 0.736,2.848 0.50133,0 0.752,-0.9493 0.752,-2.848"
         id="path3258" />
      <path
         d="m 175.107,1006.7141 c -1e-5,1.248 -0.23467,2.2027 -0.704,2.864 -0.40534,0.576 -0.94934,0.864 -1.632,0.864 -0.0853,0 -0.15467,-0.01 -0.208,-0.016 l -0.48,-0.496 0,0.432 -1.488,0 0,-12.35198 1.584,0 0,4.09598 c 0.62933,0.096 1.20533,0.4214 1.728,0.976 0.8,0.8534 1.19999,2.064 1.2,3.632 m -1.6,0.288 c 0,-2.048 -0.44267,-3.2213 -1.328,-3.52 l 0,5.2 c 0.096,0.2987 0.26666,0.448 0.512,0.448 0.23466,0 0.42666,-0.192 0.576,-0.576 0.16,-0.3946 0.24,-0.912 0.24,-1.552"
         id="path3260" />
      <path
         d="m 179.9,1010.3621 -1.472,0 0,-0.496 -0.528,0.544 c -0.064,0.021 -0.144,0.032 -0.24,0.032 -0.512,0 -0.96,-0.256 -1.344,-0.768 -0.384,-0.5226 -0.576,-1.168 -0.576,-1.936 0,-1.12 0.34133,-2.0266 1.024,-2.72 0.50133,-0.5013 1.01866,-0.7893 1.552,-0.864 l 0,-0.16 c 0,-0.4586 -0.22934,-0.688 -0.688,-0.688 -0.33067,0 -0.672,0.048 -1.024,0.144 l 0,-1.28 c 0.34133,-0.096 0.73066,-0.144 1.168,-0.144 1.41866,0 2.128,0.8 2.128,2.4 l 0,5.936 m -1.584,-1.696 0,-3.216 c -0.20267,0.021 -0.41067,0.2134 -0.624,0.576 -0.288,0.4587 -0.432,1.0294 -0.432,1.712 0,0.928 0.192,1.392 0.576,1.392 0.21333,0 0.37333,-0.1546 0.48,-0.464"
         id="path3262" />
      <path
         d="m 182.77275,1010.3621 -1.584,0 0,-12.35198 1.584,0 0,12.35198"
         id="path3264" />
      <path
         d="m 187.865,1000.7461 -1.456,0 0,-2.23998 1.456,0 0,2.23998 m 0.064,9.232 c 0,1.216 -0.28267,2.096 -0.848,2.64 -0.39467,0.3734 -0.90133,0.56 -1.52,0.56 -0.18133,0 -0.36267,-0.016 -0.544,-0.048 l 0,-1.264 c 0.128,0.021 0.24,0.032 0.336,0.032 0.66133,0 0.992,-0.5546 0.992,-1.664 l 0,-8.128 1.584,0 0,7.872"
         id="path3266" />
      <path
         d="m 193.64825,1007.5621 c 0,0.9494 -0.20267,1.6694 -0.608,2.16 -0.39467,0.48 -0.928,0.72 -1.6,0.72 -0.68267,0 -1.216,-0.2346 -1.6,-0.704 -0.416,-0.5013 -0.624,-1.2266 -0.624,-2.176 l 0,-5.456 1.584,0 0,5.904 c 0,0.2987 0.0587,0.5547 0.176,0.768 0.11733,0.2027 0.272,0.304 0.464,0.304 0.18133,0 0.33066,-0.1013 0.448,-0.304 0.11733,-0.2133 0.176,-0.4693 0.176,-0.768 l 0,-5.904 1.584,0 0,5.456"
         id="path3268" />
      <path
         d="m 198.28275,1008.0421 c 0,0.6934 -0.24,1.2694 -0.72,1.728 -0.46934,0.448 -1.04534,0.672 -1.728,0.672 -0.55467,0 -1.04,-0.091 -1.456,-0.272 l 0.624,-1.232 c 0.192,0.096 0.42133,0.144 0.688,0.144 0.24533,0 0.45333,-0.08 0.624,-0.24 0.18133,-0.1706 0.272,-0.3786 0.272,-0.624 0,-0.5653 -0.26134,-1.1413 -0.784,-1.728 -0.50133,-0.5546 -0.832,-0.9813 -0.992,-1.28 -0.18133,-0.3413 -0.272,-0.7146 -0.272,-1.12 0,-0.5866 0.208,-1.0773 0.624,-1.472 0.416,-0.3946 0.928,-0.592 1.536,-0.592 0.42666,0 0.848,0.08 1.264,0.24 l -0.576,1.168 c -0.14934,-0.075 -0.34667,-0.112 -0.592,-0.112 -0.17067,0 -0.32,0.064 -0.448,0.192 -0.128,0.1174 -0.192,0.2614 -0.192,0.432 0,0.352 0.25066,0.7787 0.752,1.28 0.50133,0.5014 0.848,0.944 1.04,1.328 0.224,0.4374 0.336,0.9334 0.336,1.488"
         id="path3270" />
      <path
         d="m 202.18,1010.3141 c -0.18134,0.032 -0.36267,0.048 -0.544,0.048 -0.608,0 -1.11467,-0.192 -1.52,-0.576 -0.56533,-0.5333 -0.848,-1.408 -0.848,-2.624 l 0,-3.696 -0.528,0 0,-1.36 0.544,0 0,-1.904 1.504,0 0,1.904 1.216,0 0,1.36 -1.152,0 0,3.952 c 0,1.1094 0.32,1.664 0.96,1.664 0.096,0 0.21866,-0.011 0.368,-0.032 l 0,1.264"
         id="path3272" />
      <path
         d="m 204.52125,1000.7461 -1.456,0 0,-2.23998 1.456,0 0,2.23998 m 0.064,9.616 -1.584,0 0,-8.256 1.584,0 0,8.256"
         id="path3274" />
      <path
         d="m 209.2485,1010.3781 c -0.21334,0.043 -0.46934,0.064 -0.768,0.064 -0.59734,0 -1.136,-0.2293 -1.616,-0.688 -0.768,-0.7253 -1.152,-1.8986 -1.152,-3.52 0,-1.6213 0.384,-2.7946 1.152,-3.52 0.48,-0.4586 1.01866,-0.688 1.616,-0.688 0.29866,0 0.54933,0.021 0.752,0.064 l 0,1.248 c -0.128,-0.021 -0.288,-0.032 -0.48,-0.032 -0.36267,0 -0.66667,0.1814 -0.912,0.544 -0.352,0.5014 -0.528,1.296 -0.528,2.384 0,1.088 0.176,1.8827 0.528,2.384 0.24533,0.3627 0.54933,0.544 0.912,0.544 0.20266,0 0.368,-0.011 0.496,-0.032 l 0,1.248"
         id="path3276" />
      <path
         d="m 214.092,1004.4101 c 0,0.9174 -0.32534,1.6747 -0.976,2.272 -0.512,0.48 -1.02934,0.7414 -1.552,0.784 0.0747,1.1307 0.44266,1.696 1.104,1.696 0.224,0 0.384,-0.011 0.48,-0.032 l 0,1.248 c -0.192,0.043 -0.39467,0.064 -0.608,0.064 -1.76,0 -2.64,-1.408 -2.64,-4.224 0,-2.7946 0.76267,-4.192 2.288,-4.192 0.49066,0 0.912,0.1814 1.264,0.544 0.42666,0.4267 0.64,1.04 0.64,1.84 m -1.472,-0.096 c 0,-0.6933 -0.14934,-1.04 -0.448,-1.04 -0.45867,0 -0.688,0.8374 -0.688,2.512 0,0.192 0.005,0.3254 0.016,0.4 0.256,-0.021 0.50133,-0.1973 0.736,-0.528 0.256,-0.3733 0.384,-0.8213 0.384,-1.344"
         id="path3278" />
    </g>
    <g
       id="text4123-5-7"
       style="font-size:36px;font-style:normal;font-variant:normal;font-weight:normal;font-stretch:normal;text-align:start;line-height:125%;letter-spacing:0px;word-spacing:0px;writing-mode:lr-tb;text-anchor:start;fill:#a30c0c;fill-opacity:1;stroke:none;font-family:BodegaSans Medium;-inkscape-font-specification:'BodegaSans Medium,'">
      <path
         d="m 29.841788,992.15527 -1.836,0 -6.228,-15.84 0,15.84 -3.672,0 0,-27.792 1.836,0 6.192,15.948 0,-15.948 3.708,0 0,27.792"
         id="path3161"
         style="line-height:125%;fill:#a30c0c;font-family:BodegaSans Medium;-inkscape-font-specification:'BodegaSans Medium,'" />
      <path
         d="m 41.862975,978.76327 c -10e-6,2.06401 -0.732009,3.76801 -2.196,5.112 -1.152007,1.08001 -2.316005,1.66801 -3.492,1.764 0.167996,2.54401 0.995995,3.81601 2.484,3.816 0.503993,10e-6 0.863992,-0.024 1.08,-0.072 l 0,2.808 c -0.432007,0.096 -0.888007,0.144 -1.368,0.144 -3.960003,0 -5.940001,-3.16799 -5.94,-9.504 -10e-7,-6.28798 1.715998,-9.43198 5.148,-9.432 1.103993,2e-5 2.051992,0.40802 2.844,1.224 0.95999,0.96002 1.43999,2.34002 1.44,4.14 m -3.312,-0.216 c -7e-6,-1.55998 -0.336006,-2.33998 -1.008,-2.34 -1.032005,2e-5 -1.548004,1.88402 -1.548,5.652 -4e-6,0.43201 0.012,0.73201 0.036,0.9 0.575995,-0.048 1.127995,-0.44399 1.656,-1.188 0.575994,-0.83999 0.863993,-1.84798 0.864,-3.024"
         id="path3163"
         style="line-height:125%;fill:#a30c0c;font-family:BodegaSans Medium;-inkscape-font-specification:'BodegaSans Medium,'" />
      <path
         d="m 60.609413,973.57927 -3.816,18.576 -2.844,0 -2.268,-10.584 -2.196,10.584 -2.844,0 -3.852,-18.576 3.096,0 2.304,12.636 2.232,-12.636 2.628,0 2.268,12.672 2.268,-12.672 3.024,0"
         id="path3165"
         style="line-height:125%;fill:#a30c0c;font-family:BodegaSans Medium;-inkscape-font-specification:'BodegaSans Medium,'" />
      <path
         d="m 71.281163,992.15527 -3.816,0 0,-27.792 3.816,0 0,27.792"
         id="path3167"
         style="line-height:125%;fill:#a30c0c;font-family:BodegaSans Medium;-inkscape-font-specification:'BodegaSans Medium,'" />
      <path
         d="m 84.177038,992.15527 -3.564,0 0,-13.284 c -8e-6,-0.67198 -0.132008,-1.23598 -0.396,-1.692 -0.264007,-0.47998 -0.600007,-0.71998 -1.008,-0.72 -0.432006,2e-5 -0.780006,0.24002 -1.044,0.72 -0.264005,0.45602 -0.396005,1.02002 -0.396,1.692 l 0,13.284 -3.564,0 0,-18.576 3.276,0 0,0.972 1.116,-1.116 c 0.119994,-0.024 0.323994,-0.036 0.612,-0.036 3.31199,2e-5 4.967989,2.16002 4.968,6.48 l 0,12.276"
         id="path3169"
         style="line-height:125%;fill:#a30c0c;font-family:BodegaSans Medium;-inkscape-font-specification:'BodegaSans Medium,'" />
      <path
         d="m 93.740663,992.04727 c -0.408008,0.072 -0.816008,0.108 -1.224,0.108 -1.368006,0 -2.508005,-0.432 -3.42,-1.296 -1.272003,-1.19999 -1.908002,-3.16799 -1.908,-5.904 l 0,-8.316 -1.188,0 0,-3.06 1.224,0 0,-4.284 3.384,0 0,4.284 2.736,0 0,3.06 -2.592,0 0,8.892 c -5e-6,2.49601 0.719994,3.74401 2.16,3.744 0.215992,10e-6 0.491992,-0.024 0.828,-0.072 l 0,2.844"
         id="path3171"
         style="line-height:125%;fill:#a30c0c;font-family:BodegaSans Medium;-inkscape-font-specification:'BodegaSans Medium,'" />
      <path
         d="m 104.30048,978.76327 c -10e-6,2.06401 -0.73201,3.76801 -2.196,5.112 -1.15201,1.08001 -2.31601,1.66801 -3.492005,1.764 0.167996,2.54401 0.995995,3.81601 2.484005,3.816 0.50399,10e-6 0.86399,-0.024 1.08,-0.072 l 0,2.808 c -0.43201,0.096 -0.88801,0.144 -1.368,0.144 -3.960008,0 -5.940006,-3.16799 -5.940005,-9.504 -10e-7,-6.28798 1.715998,-9.43198 5.148005,-9.432 1.10399,2e-5 2.05199,0.40802 2.844,1.224 0.95999,0.96002 1.43999,2.34002 1.44,4.14 m -3.312,-0.216 c -10e-6,-1.55998 -0.33601,-2.33998 -1.008005,-2.34 -1.032005,2e-5 -1.548004,1.88402 -1.548,5.652 -4e-6,0.43201 0.012,0.73201 0.036,0.9 0.575995,-0.048 1.127995,-0.44399 1.656005,-1.188 0.57599,-0.83999 0.86399,-1.84798 0.864,-3.024"
         id="path3173"
         style="line-height:125%;fill:#a30c0c;font-family:BodegaSans Medium;-inkscape-font-specification:'BodegaSans Medium,'" />
      <path
         d="m 113.03891,976.63927 -0.432,0 c -0.864,2e-5 -1.572,0.32402 -2.124,0.972 -0.528,0.64802 -0.792,1.51202 -0.792,2.592 l 0,11.952 -3.564,0 0,-18.576 3.384,0 0,1.476 c 0.672,-0.98398 1.632,-1.47598 2.88,-1.476 l 0.648,0 0,3.06"
         id="path3175"
         style="line-height:125%;fill:#a30c0c;font-family:BodegaSans Medium;-inkscape-font-specification:'BodegaSans Medium,'" />
      <path
         d="m 124.25516,992.15527 -3.564,0 0,-13.284 c 0,-0.67198 -0.132,-1.23598 -0.396,-1.692 -0.264,-0.47998 -0.6,-0.71998 -1.008,-0.72 -0.432,2e-5 -0.78,0.24002 -1.044,0.72 -0.264,0.45602 -0.396,1.02002 -0.396,1.692 l 0,13.284 -3.564,0 0,-18.576 3.276,0 0,0.972 1.116,-1.116 c 0.12,-0.024 0.324,-0.036 0.612,-0.036 3.31199,2e-5 4.96799,2.16002 4.968,6.48 l 0,12.276"
         id="path3177"
         style="line-height:125%;fill:#a30c0c;font-family:BodegaSans Medium;-inkscape-font-specification:'BodegaSans Medium,'" />
      <path
         d="m 135.43879,992.15527 -3.312,0 0,-1.116 -1.188,1.224 c -0.14401,0.048 -0.32401,0.072 -0.54,0.072 -1.15201,0 -2.16,-0.576 -3.024,-1.728 -0.864,-1.17599 -1.296,-2.62799 -1.296,-4.356 0,-2.51999 0.768,-4.55999 2.304,-6.12 1.12799,-1.12798 2.29199,-1.77598 3.492,-1.944 l 0,-0.36 c -1e-5,-1.03198 -0.51601,-1.54798 -1.548,-1.548 -0.74401,2e-5 -1.51201,0.10802 -2.304,0.324 l 0,-2.88 c 0.76799,-0.21598 1.64399,-0.32398 2.628,-0.324 3.19199,2e-5 4.78799,1.80002 4.788,5.4 l 0,13.356 m -3.564,-3.816 0,-7.236 c -0.45601,0.048 -0.92401,0.48001 -1.404,1.296 -0.64801,1.03201 -0.97201,2.31601 -0.972,3.852 -1e-5,2.08801 0.43199,3.13201 1.296,3.132 0.47999,10e-6 0.83999,-0.34799 1.08,-1.044"
         id="path3179"
         style="line-height:125%;fill:#a30c0c;font-family:BodegaSans Medium;-inkscape-font-specification:'BodegaSans Medium,'" />
      <path
         d="m 144.99848,992.04727 c -0.40801,0.072 -0.81601,0.108 -1.224,0.108 -1.36801,0 -2.50801,-0.432 -3.42,-1.296 -1.27201,-1.19999 -1.90801,-3.16799 -1.908,-5.904 l 0,-8.316 -1.188,0 0,-3.06 1.224,0 0,-4.284 3.384,0 0,4.284 2.736,0 0,3.06 -2.592,0 0,8.892 c -1e-5,2.49601 0.71999,3.74401 2.16,3.744 0.21599,10e-6 0.49199,-0.024 0.828,-0.072 l 0,2.844"
         id="path3181"
         style="line-height:125%;fill:#a30c0c;font-family:BodegaSans Medium;-inkscape-font-specification:'BodegaSans Medium,'" />
      <path
         d="m 150.26629,970.51927 -3.276,0 0,-5.04 3.276,0 0,5.04 m 0.144,21.636 -3.564,0 0,-18.576 3.564,0 0,18.576"
         id="path3183"
         style="line-height:125%;fill:#a30c0c;font-family:BodegaSans Medium;-inkscape-font-specification:'BodegaSans Medium,'" />
      <path
         d="m 163.4586,982.86727 c -1e-5,3.69601 -0.64801,6.32401 -1.944,7.884 -0.86401,1.056 -1.96801,1.584 -3.312,1.584 -1.32,0 -2.424,-0.528 -3.312,-1.584 -1.296,-1.55999 -1.944,-4.18799 -1.944,-7.884 0,-3.69598 0.648,-6.32398 1.944,-7.884 0.888,-1.05598 1.992,-1.58398 3.312,-1.584 1.34399,2e-5 2.44799,0.52802 3.312,1.584 1.29599,1.56002 1.94399,4.18802 1.944,7.884 m -3.564,0 c -1e-5,-4.27198 -0.56401,-6.40798 -1.692,-6.408 -1.104,2e-5 -1.656,2.13602 -1.656,6.408 0,4.27201 0.552,6.40801 1.656,6.408 1.12799,10e-6 1.69199,-2.13599 1.692,-6.408"
         id="path3185"
         style="line-height:125%;fill:#a30c0c;font-family:BodegaSans Medium;-inkscape-font-specification:'BodegaSans Medium,'" />
      <path
         d="m 175.58329,992.15527 -3.564,0 0,-13.284 c -1e-5,-0.67198 -0.13201,-1.23598 -0.396,-1.692 -0.26401,-0.47998 -0.60001,-0.71998 -1.008,-0.72 -0.43201,2e-5 -0.78001,0.24002 -1.044,0.72 -0.26401,0.45602 -0.39601,1.02002 -0.396,1.692 l 0,13.284 -3.564,0 0,-18.576 3.276,0 0,0.972 1.116,-1.116 c 0.11999,-0.024 0.32399,-0.036 0.612,-0.036 3.31199,2e-5 4.96799,2.16002 4.968,6.48 l 0,12.276"
         id="path3187"
         style="line-height:125%;fill:#a30c0c;font-family:BodegaSans Medium;-inkscape-font-specification:'BodegaSans Medium,'" />
      <path
         d="m 186.76691,992.15527 -3.312,0 0,-1.116 -1.188,1.224 c -0.144,0.048 -0.324,0.072 -0.54,0.072 -1.152,0 -2.16,-0.576 -3.024,-1.728 -0.864,-1.17599 -1.296,-2.62799 -1.296,-4.356 0,-2.51999 0.768,-4.55999 2.304,-6.12 1.128,-1.12798 2.292,-1.77598 3.492,-1.944 l 0,-0.36 c 0,-1.03198 -0.516,-1.54798 -1.548,-1.548 -0.744,2e-5 -1.512,0.10802 -2.304,0.324 l 0,-2.88 c 0.768,-0.21598 1.644,-0.32398 2.628,-0.324 3.19199,2e-5 4.78799,1.80002 4.788,5.4 l 0,13.356 m -3.564,-3.816 0,-7.236 c -0.456,0.048 -0.924,0.48001 -1.404,1.296 -0.648,1.03201 -0.972,2.31601 -0.972,3.852 0,2.08801 0.432,3.13201 1.296,3.132 0.48,10e-6 0.84,-0.34799 1.08,-1.044"
         id="path3189"
         style="line-height:125%;fill:#a30c0c;font-family:BodegaSans Medium;-inkscape-font-specification:'BodegaSans Medium,'" />
      <path
         d="m 193.2306,992.15527 -3.564,0 0,-27.792 3.564,0 0,27.792"
         id="path3191"
         style="line-height:125%;fill:#a30c0c;font-family:BodegaSans Medium;-inkscape-font-specification:'BodegaSans Medium,'" />
      <path
         d="m 199.90691,970.51927 -3.276,0 0,-5.04 3.276,0 0,5.04 m 0.144,21.636 -3.564,0 0,-18.576 3.564,0 0,18.576"
         id="path3193"
         style="line-height:125%;fill:#a30c0c;font-family:BodegaSans Medium;-inkscape-font-specification:'BodegaSans Medium,'" />
      <path
         d="m 210.83123,986.93527 c -1e-5,1.56001 -0.54001,2.85601 -1.62,3.888 -1.05601,1.008 -2.35201,1.512 -3.888,1.512 -1.24801,0 -2.34001,-0.204 -3.276,-0.612 l 1.404,-2.772 c 0.43199,0.21601 0.94799,0.32401 1.548,0.324 0.55199,10e-6 1.01999,-0.17999 1.404,-0.54 0.40799,-0.38399 0.61199,-0.85199 0.612,-1.404 -1e-5,-1.27199 -0.58801,-2.56799 -1.764,-3.888 -1.12801,-1.24799 -1.87201,-2.20799 -2.232,-2.88 -0.40801,-0.76798 -0.61201,-1.60798 -0.612,-2.52 -1e-5,-1.31998 0.46799,-2.42398 1.404,-3.312 0.93599,-0.88798 2.08799,-1.33198 3.456,-1.332 0.95999,2e-5 1.90799,0.18002 2.844,0.54 l -1.296,2.628 c -0.33601,-0.16798 -0.78001,-0.25198 -1.332,-0.252 -0.38401,2e-5 -0.72001,0.14402 -1.008,0.432 -0.28801,0.26402 -0.43201,0.58802 -0.432,0.972 -1e-5,0.79202 0.56399,1.75202 1.692,2.88 1.12799,1.12801 1.90799,2.12401 2.34,2.988 0.50399,0.98401 0.75599,2.10001 0.756,3.348"
         id="path3195"
         style="line-height:125%;fill:#a30c0c;font-family:BodegaSans Medium;-inkscape-font-specification:'BodegaSans Medium,'" />
      <path
         d="m 219.60004,992.04727 c -0.40801,0.072 -0.81601,0.108 -1.224,0.108 -1.36801,0 -2.50801,-0.432 -3.42,-1.296 -1.272,-1.19999 -1.908,-3.16799 -1.908,-5.904 l 0,-8.316 -1.188,0 0,-3.06 1.224,0 0,-4.284 3.384,0 0,4.284 2.736,0 0,3.06 -2.592,0 0,8.892 c -1e-5,2.49601 0.71999,3.74401 2.16,3.744 0.21599,10e-6 0.49199,-0.024 0.828,-0.072 l 0,2.844"
         id="path3197"
         style="line-height:125%;fill:#a30c0c;font-family:BodegaSans Medium;-inkscape-font-specification:'BodegaSans Medium,'" />
    </g>
    <g
       id="text4123-9"
       style="font-size:36px;font-style:normal;font-variant:normal;font-weight:normal;font-stretch:normal;text-align:start;line-height:125%;letter-spacing:0px;word-spacing:0px;writing-mode:lr-tb;text-anchor:start;fill:#1a1a1a;fill-opacity:1;stroke:none;font-family:BodegaSans Medium;-inkscape-font-specification:'BodegaSans Medium,'">
      <path
         d="m 30.841795,936.15527 -1.836,0 -6.228,-15.84 0,15.84 -3.672,0 0,-27.792 1.836,0 6.192,15.948 0,-15.948 3.708,0 0,27.792"
         id="path3122"
         style="line-height:125%;fill:#1a1a1a;font-family:BodegaSans Medium;-inkscape-font-specification:'BodegaSans Medium,'" />
      <path
         d="m 42.862983,922.76327 c -1e-5,2.06401 -0.73201,3.76801 -2.196,5.112 -1.152007,1.08001 -2.316006,1.66801 -3.492,1.764 0.167995,2.54401 0.995994,3.81601 2.484,3.816 0.503992,10e-6 0.863992,-0.024 1.08,-0.072 l 0,2.808 c -0.432008,0.096 -0.888007,0.144 -1.368,0.144 -3.960003,0 -5.940001,-3.16799 -5.94,-9.504 -10e-7,-6.28798 1.715997,-9.43198 5.148,-9.432 1.103993,2e-5 2.051992,0.40802 2.844,1.224 0.95999,0.96002 1.43999,2.34002 1.44,4.14 m -3.312,-0.216 c -7e-6,-1.55998 -0.336007,-2.33998 -1.008,-2.34 -1.032005,2e-5 -1.548004,1.88402 -1.548,5.652 -4e-6,0.43201 0.01199,0.73201 0.036,0.9 0.575995,-0.048 1.127994,-0.44399 1.656,-1.188 0.575993,-0.83999 0.863993,-1.84798 0.864,-3.024"
         id="path3124"
         style="line-height:125%;fill:#1a1a1a;font-family:BodegaSans Medium;-inkscape-font-specification:'BodegaSans Medium,'" />
      <path
         d="m 61.60942,917.57927 -3.816,18.576 -2.844,0 -2.268,-10.584 -2.196,10.584 -2.844,0 -3.852,-18.576 3.096,0 2.304,12.636 2.232,-12.636 2.628,0 2.268,12.672 2.268,-12.672 3.024,0"
         id="path3126"
         style="line-height:125%;fill:#1a1a1a;font-family:BodegaSans Medium;-inkscape-font-specification:'BodegaSans Medium,'" />
      <path
         d="m 72.28117,936.15527 -3.816,0 0,-27.792 3.816,0 0,27.792"
         id="path3128"
         style="line-height:125%;fill:#1a1a1a;font-family:BodegaSans Medium;-inkscape-font-specification:'BodegaSans Medium,'" />
      <path
         d="m 85.177045,936.15527 -3.564,0 0,-13.284 c -7e-6,-0.67198 -0.132007,-1.23598 -0.396,-1.692 -0.264007,-0.47998 -0.600006,-0.71998 -1.008,-0.72 -0.432005,2e-5 -0.780005,0.24002 -1.044,0.72 -0.264004,0.45602 -0.396004,1.02002 -0.396,1.692 l 0,13.284 -3.564,0 0,-18.576 3.276,0 0,0.972 1.116,-1.116 c 0.119995,-0.024 0.323994,-0.036 0.612,-0.036 3.311991,2e-5 4.967989,2.16002 4.968,6.48 l 0,12.276"
         id="path3130"
         style="line-height:125%;fill:#1a1a1a;font-family:BodegaSans Medium;-inkscape-font-specification:'BodegaSans Medium,'" />
      <path
         d="m 94.74067,936.04727 c -0.408007,0.072 -0.816007,0.108 -1.224,0.108 -1.368005,0 -2.508004,-0.432 -3.42,-1.296 -1.272002,-1.19999 -1.908001,-3.16799 -1.908,-5.904 l 0,-8.316 -1.188,0 0,-3.06 1.224,0 0,-4.284 3.384,0 0,4.284 2.736,0 0,3.06 -2.592,0 0,8.892 c -5e-6,2.49601 0.719994,3.74401 2.16,3.744 0.215993,10e-6 0.491993,-0.024 0.828,-0.072 l 0,2.844"
         id="path3132"
         style="line-height:125%;fill:#1a1a1a;font-family:BodegaSans Medium;-inkscape-font-specification:'BodegaSans Medium,'" />
      <path
         d="m 105.30048,922.76327 c -10e-6,2.06401 -0.73201,3.76801 -2.196,5.112 -1.152,1.08001 -2.316,1.66801 -3.491997,1.764 0.167995,2.54401 0.995997,3.81601 2.483997,3.816 0.504,10e-6 0.86399,-0.024 1.08,-0.072 l 0,2.808 c -0.432,0.096 -0.888,0.144 -1.368,0.144 -3.96,0 -5.939998,-3.16799 -5.939997,-9.504 -10e-7,-6.28798 1.715997,-9.43198 5.147997,-9.432 1.104,2e-5 2.05199,0.40802 2.844,1.224 0.95999,0.96002 1.43999,2.34002 1.44,4.14 m -3.312,-0.216 c 0,-1.55998 -0.336,-2.33998 -1.008,-2.34 -1.032002,2e-5 -1.548001,1.88402 -1.547997,5.652 -4e-6,0.43201 0.01199,0.73201 0.036,0.9 0.575997,-0.048 1.127997,-0.44399 1.655997,-1.188 0.576,-0.83999 0.864,-1.84798 0.864,-3.024"
         id="path3134"
         style="line-height:125%;fill:#1a1a1a;font-family:BodegaSans Medium;-inkscape-font-specification:'BodegaSans Medium,'" />
      <path
         d="m 114.03892,920.63927 -0.432,0 c -0.86401,2e-5 -1.57201,0.32402 -2.124,0.972 -0.528,0.64802 -0.792,1.51202 -0.792,2.592 l 0,11.952 -3.564,0 0,-18.576 3.384,0 0,1.476 c 0.672,-0.98398 1.63199,-1.47598 2.88,-1.476 l 0.648,0 0,3.06"
         id="path3136"
         style="line-height:125%;fill:#1a1a1a;font-family:BodegaSans Medium;-inkscape-font-specification:'BodegaSans Medium,'" />
      <path
         d="m 125.25517,936.15527 -3.564,0 0,-13.284 c -1e-5,-0.67198 -0.13201,-1.23598 -0.396,-1.692 -0.26401,-0.47998 -0.60001,-0.71998 -1.008,-0.72 -0.43201,2e-5 -0.78001,0.24002 -1.044,0.72 -0.264,0.45602 -0.396,1.02002 -0.396,1.692 l 0,13.284 -3.564,0 0,-18.576 3.276,0 0,0.972 1.116,-1.116 c 0.11999,-0.024 0.32399,-0.036 0.612,-0.036 3.31199,2e-5 4.96799,2.16002 4.968,6.48 l 0,12.276"
         id="path3138"
         style="line-height:125%;fill:#1a1a1a;font-family:BodegaSans Medium;-inkscape-font-specification:'BodegaSans Medium,'" />
      <path
         d="m 136.4388,936.15527 -3.312,0 0,-1.116 -1.188,1.224 c -0.14401,0.048 -0.32401,0.072 -0.54,0.072 -1.15201,0 -2.16001,-0.576 -3.024,-1.728 -0.86401,-1.17599 -1.29601,-2.62799 -1.296,-4.356 -1e-5,-2.51999 0.76799,-4.55999 2.304,-6.12 1.12799,-1.12798 2.29199,-1.77598 3.492,-1.944 l 0,-0.36 c -1e-5,-1.03198 -0.51601,-1.54798 -1.548,-1.548 -0.74401,2e-5 -1.51201,0.10802 -2.304,0.324 l 0,-2.88 c 0.76799,-0.21598 1.64399,-0.32398 2.628,-0.324 3.19199,2e-5 4.78799,1.80002 4.788,5.4 l 0,13.356 m -3.564,-3.816 0,-7.236 c -0.45601,0.048 -0.92401,0.48001 -1.404,1.296 -0.64801,1.03201 -0.97201,2.31601 -0.972,3.852 -10e-6,2.08801 0.43199,3.13201 1.296,3.132 0.47999,10e-6 0.83999,-0.34799 1.08,-1.044"
         id="path3140"
         style="line-height:125%;fill:#1a1a1a;font-family:BodegaSans Medium;-inkscape-font-specification:'BodegaSans Medium,'" />
      <path
         d="m 145.99848,936.04727 c -0.408,0.072 -0.816,0.108 -1.224,0.108 -1.368,0 -2.508,-0.432 -3.42,-1.296 -1.272,-1.19999 -1.908,-3.16799 -1.908,-5.904 l 0,-8.316 -1.188,0 0,-3.06 1.224,0 0,-4.284 3.384,0 0,4.284 2.736,0 0,3.06 -2.592,0 0,8.892 c 0,2.49601 0.72,3.74401 2.16,3.744 0.216,10e-6 0.492,-0.024 0.828,-0.072 l 0,2.844"
         id="path3142"
         style="line-height:125%;fill:#1a1a1a;font-family:BodegaSans Medium;-inkscape-font-specification:'BodegaSans Medium,'" />
      <path
         d="m 151.2663,914.51927 -3.276,0 0,-5.04 3.276,0 0,5.04 m 0.144,21.636 -3.564,0 0,-18.576 3.564,0 0,18.576"
         id="path3144"
         style="line-height:125%;fill:#1a1a1a;font-family:BodegaSans Medium;-inkscape-font-specification:'BodegaSans Medium,'" />
      <path
         d="m 164.45861,926.86727 c -1e-5,3.69601 -0.64801,6.32401 -1.944,7.884 -0.86401,1.056 -1.96801,1.584 -3.312,1.584 -1.32001,0 -2.42401,-0.528 -3.312,-1.584 -1.296,-1.55999 -1.944,-4.18799 -1.944,-7.884 0,-3.69598 0.648,-6.32398 1.944,-7.884 0.88799,-1.05598 1.99199,-1.58398 3.312,-1.584 1.34399,2e-5 2.44799,0.52802 3.312,1.584 1.29599,1.56002 1.94399,4.18802 1.944,7.884 m -3.564,0 c -1e-5,-4.27198 -0.56401,-6.40798 -1.692,-6.408 -1.10401,2e-5 -1.65601,2.13602 -1.656,6.408 -10e-6,4.27201 0.55199,6.40801 1.656,6.408 1.12799,10e-6 1.69199,-2.13599 1.692,-6.408"
         id="path3146"
         style="line-height:125%;fill:#1a1a1a;font-family:BodegaSans Medium;-inkscape-font-specification:'BodegaSans Medium,'" />
      <path
         d="m 176.5833,936.15527 -3.564,0 0,-13.284 c -10e-6,-0.67198 -0.13201,-1.23598 -0.396,-1.692 -0.26401,-0.47998 -0.60001,-0.71998 -1.008,-0.72 -0.43201,2e-5 -0.78001,0.24002 -1.044,0.72 -0.26401,0.45602 -0.39601,1.02002 -0.396,1.692 l 0,13.284 -3.564,0 0,-18.576 3.276,0 0,0.972 1.116,-1.116 c 0.11999,-0.024 0.32399,-0.036 0.612,-0.036 3.31199,2e-5 4.96798,2.16002 4.968,6.48 l 0,12.276"
         id="path3148"
         style="line-height:125%;fill:#1a1a1a;font-family:BodegaSans Medium;-inkscape-font-specification:'BodegaSans Medium,'" />
      <path
         d="m 187.76692,936.15527 -3.312,0 0,-1.116 -1.188,1.224 c -0.144,0.048 -0.324,0.072 -0.54,0.072 -1.152,0 -2.16,-0.576 -3.024,-1.728 -0.864,-1.17599 -1.296,-2.62799 -1.296,-4.356 0,-2.51999 0.768,-4.55999 2.304,-6.12 1.128,-1.12798 2.292,-1.77598 3.492,-1.944 l 0,-0.36 c -1e-5,-1.03198 -0.51601,-1.54798 -1.548,-1.548 -0.744,2e-5 -1.512,0.10802 -2.304,0.324 l 0,-2.88 c 0.768,-0.21598 1.644,-0.32398 2.628,-0.324 3.19199,2e-5 4.78799,1.80002 4.788,5.4 l 0,13.356 m -3.564,-3.816 0,-7.236 c -0.45601,0.048 -0.924,0.48001 -1.404,1.296 -0.648,1.03201 -0.972,2.31601 -0.972,3.852 0,2.08801 0.432,3.13201 1.296,3.132 0.47999,10e-6 0.83999,-0.34799 1.08,-1.044"
         id="path3150"
         style="line-height:125%;fill:#1a1a1a;font-family:BodegaSans Medium;-inkscape-font-specification:'BodegaSans Medium,'" />
      <path
         d="m 194.23061,936.15527 -3.564,0 0,-27.792 3.564,0 0,27.792"
         id="path3152"
         style="line-height:125%;fill:#1a1a1a;font-family:BodegaSans Medium;-inkscape-font-specification:'BodegaSans Medium,'" />
      <path
         d="m 200.90692,914.51927 -3.276,0 0,-5.04 3.276,0 0,5.04 m 0.144,21.636 -3.564,0 0,-18.576 3.564,0 0,18.576"
         id="path3154"
         style="line-height:125%;fill:#1a1a1a;font-family:BodegaSans Medium;-inkscape-font-specification:'BodegaSans Medium,'" />
      <path
         d="m 211.83123,930.93527 c -1e-5,1.56001 -0.54001,2.85601 -1.62,3.888 -1.056,1.008 -2.352,1.512 -3.888,1.512 -1.248,0 -2.34,-0.204 -3.276,-0.612 l 1.404,-2.772 c 0.432,0.21601 0.948,0.32401 1.548,0.324 0.552,10e-6 1.02,-0.17999 1.404,-0.54 0.408,-0.38399 0.612,-0.85199 0.612,-1.404 0,-1.27199 -0.588,-2.56799 -1.764,-3.888 -1.128,-1.24799 -1.872,-2.20799 -2.232,-2.88 -0.408,-0.76798 -0.612,-1.60798 -0.612,-2.52 0,-1.31998 0.468,-2.42398 1.404,-3.312 0.936,-0.88798 2.088,-1.33198 3.456,-1.332 0.96,2e-5 1.908,0.18002 2.844,0.54 l -1.296,2.628 c -0.336,-0.16798 -0.78,-0.25198 -1.332,-0.252 -0.384,2e-5 -0.72,0.14402 -1.008,0.432 -0.288,0.26402 -0.432,0.58802 -0.432,0.972 0,0.79202 0.564,1.75202 1.692,2.88 1.128,1.12801 1.908,2.12401 2.34,2.988 0.50399,0.98401 0.75599,2.10001 0.756,3.348"
         id="path3156"
         style="line-height:125%;fill:#1a1a1a;font-family:BodegaSans Medium;-inkscape-font-specification:'BodegaSans Medium,'" />
      <path
         d="m 220.60005,936.04727 c -0.40801,0.072 -0.81601,0.108 -1.224,0.108 -1.36801,0 -2.50801,-0.432 -3.42,-1.296 -1.27201,-1.19999 -1.90801,-3.16799 -1.908,-5.904 l 0,-8.316 -1.188,0 0,-3.06 1.224,0 0,-4.284 3.384,0 0,4.284 2.736,0 0,3.06 -2.592,0 0,8.892 c -1e-5,2.49601 0.71999,3.74401 2.16,3.744 0.21599,10e-6 0.49199,-0.024 0.828,-0.072 l 0,2.844"
         id="path3158"
         style="line-height:125%;fill:#1a1a1a;font-family:BodegaSans Medium;-inkscape-font-specification:'BodegaSans Medium,'" />
    </g>
    <g
       id="text4119-6"
       style="font-size:16px;font-style:normal;font-variant:normal;font-weight:normal;font-stretch:normal;text-align:start;line-height:125%;letter-spacing:0px;word-spacing:0px;writing-mode:lr-tb;text-anchor:start;color:#000000;fill:#f9f9f9;fill-opacity:1;fill-rule:nonzero;stroke:none;marker:none;visibility:visible;display:inline;overflow:visible;enable-background:accumulate;font-family:BodegaSans Medium;-inkscape-font-specification:'BodegaSans Medium,'">
      <path
         d="m 25.132283,894.3563 c -6e-6,1.41868 -0.437339,2.58134 -1.312,3.488 -0.576004,0.58667 -1.184003,0.96534 -1.824,1.136 l 0,3.968 -1.696,0 0,-12.352 1.296,0 c 1.01333,2e-5 1.829329,0.27202 2.448,0.816 0.725328,0.65068 1.087994,1.63201 1.088,2.944 m -1.712,-0.016 c -4e-6,-1.57865 -0.47467,-2.36799 -1.424,-2.368 l 0,5.44 c 0.266664,-0.0427 0.543997,-0.28266 0.832,-0.72 0.394663,-0.59732 0.591996,-1.38132 0.592,-2.352"
         id="path3041"
         style="marker:none" />
      <path
         d="m 29.921533,896.9963 c -5e-6,0.91734 -0.325338,1.67467 -0.976,2.272 -0.512003,0.48001 -1.029336,0.74134 -1.552,0.784 0.07466,1.13067 0.442664,1.696 1.104,1.696 0.223996,0 0.383996,-0.0107 0.48,-0.032 l 0,1.248 c -0.192004,0.0427 -0.39467,0.064 -0.608,0.064 -1.760002,0 -2.640001,-1.408 -2.64,-4.224 -1e-6,-2.79466 0.762665,-4.19199 2.288,-4.192 0.490663,10e-6 0.911996,0.18134 1.264,0.544 0.426662,0.42668 0.639995,1.04001 0.64,1.84 m -1.472,-0.096 c -3e-6,-0.69332 -0.149337,-1.03999 -0.448,-1.04 -0.458669,10e-6 -0.688002,0.83734 -0.688,2.512 -2e-6,0.19201 0.0053,0.32534 0.016,0.4 0.255997,-0.0213 0.50133,-0.19733 0.736,-0.528 0.255997,-0.37333 0.383997,-0.82132 0.384,-1.344"
         id="path3043"
         style="marker:none" />
      <path
         d="m 35.245283,898.8203 c -5e-6,1.64267 -0.288005,2.81067 -0.864,3.504 -0.384004,0.46934 -0.87467,0.704 -1.472,0.704 -0.586669,0 -1.077335,-0.23466 -1.472,-0.704 -0.576001,-0.69333 -0.864001,-1.86133 -0.864,-3.504 -1e-6,-1.64266 0.287999,-2.81066 0.864,-3.504 0.394665,-0.46932 0.885331,-0.70399 1.472,-0.704 0.59733,10e-6 1.087996,0.23468 1.472,0.704 0.575995,0.69334 0.863995,1.86134 0.864,3.504 m -1.584,0 c -4e-6,-1.89866 -0.25067,-2.84799 -0.752,-2.848 -0.490669,10e-6 -0.736002,0.94934 -0.736,2.848 -2e-6,1.89867 0.245331,2.848 0.736,2.848 0.50133,0 0.751996,-0.94933 0.752,-2.848"
         id="path3045"
         style="marker:none" />
      <path
         d="m 40.714033,898.3403 c -5e-6,1.56801 -0.400005,2.77867 -1.2,3.632 -0.52267,0.55467 -1.09867,0.88 -1.728,0.976 l 0,2.736 -1.584,0 0,-10.992 1.488,0 0,0.432 0.48,-0.496 c 0.05333,-0.0107 0.122664,-0.016 0.208,-0.016 0.682663,10e-6 1.226662,0.28801 1.632,0.864 0.469328,0.66134 0.703995,1.61601 0.704,2.864 m -1.6,-0.288 c -4e-6,-0.63999 -0.08,-1.15199 -0.24,-1.536 -0.149337,-0.39466 -0.341337,-0.59199 -0.576,-0.592 -0.245336,10e-6 -0.416003,0.14934 -0.512,0.448 l 0,5.2 c 0.88533,-0.29866 1.327996,-1.47199 1.328,-3.52"
         id="path3047"
         style="marker:none" />
      <path
         d="m 43.446033,902.9483 -1.584,0 0,-12.352 1.584,0 0,12.352"
         id="path3049"
         style="marker:none" />
      <path
         d="m 48.765283,896.9963 c -5e-6,0.91734 -0.325338,1.67467 -0.976,2.272 -0.512003,0.48001 -1.029336,0.74134 -1.552,0.784 0.07466,1.13067 0.442664,1.696 1.104,1.696 0.223996,0 0.383996,-0.0107 0.48,-0.032 l 0,1.248 c -0.192004,0.0427 -0.39467,0.064 -0.608,0.064 -1.760002,0 -2.640001,-1.408 -2.64,-4.224 -1e-6,-2.79466 0.762665,-4.19199 2.288,-4.192 0.490663,10e-6 0.911996,0.18134 1.264,0.544 0.426662,0.42668 0.639995,1.04001 0.64,1.84 m -1.472,-0.096 c -3e-6,-0.69332 -0.149337,-1.03999 -0.448,-1.04 -0.458669,10e-6 -0.688002,0.83734 -0.688,2.512 -2e-6,0.19201 0.0053,0.32534 0.016,0.4 0.255997,-0.0213 0.50133,-0.19733 0.736,-0.528 0.255997,-0.37333 0.383997,-0.82132 0.384,-1.344"
         id="path3051"
         style="marker:none" />
      <path
         d="m 51.433033,901.0283 -0.832,4.176 -0.976,0 0,-4.544 1.808,0.368"
         id="path3053"
         style="marker:none" />
      <path
         d="m 56.225783,893.3323 -1.456,0 0,-2.24 1.456,0 0,2.24 m 0.064,9.616 -1.584,0 0,-8.256 1.584,0 0,8.256"
         id="path3055"
         style="marker:none" />
      <path
         d="m 61.929033,902.9483 -1.488,0 0,-0.432 -0.48,0.496 c -0.05334,0.0107 -0.12267,0.016 -0.208,0.016 -0.682669,0 -1.226669,-0.288 -1.632,-0.864 -0.469334,-0.66133 -0.704001,-1.61599 -0.704,-2.864 -1e-6,-1.56799 0.399999,-2.77866 1.2,-3.632 0.522664,-0.55466 1.098664,-0.87999 1.728,-0.976 l 0,-4.096 1.584,0 0,12.352 m -1.584,-1.68 0,-5.2 c -0.885336,0.29868 -1.328002,1.47201 -1.328,3.52 -2e-6,0.64001 0.07466,1.15734 0.224,1.552 0.159997,0.384 0.35733,0.576 0.592,0.576 0.24533,0 0.415996,-0.14933 0.512,-0.448"
         id="path3057"
         style="marker:none" />
      <path
         d="m 67.234033,896.9963 c -5e-6,0.91734 -0.325338,1.67467 -0.976,2.272 -0.512003,0.48001 -1.029336,0.74134 -1.552,0.784 0.07466,1.13067 0.442664,1.696 1.104,1.696 0.223996,0 0.383996,-0.0107 0.48,-0.032 l 0,1.248 c -0.192004,0.0427 -0.39467,0.064 -0.608,0.064 -1.760002,0 -2.640001,-1.408 -2.64,-4.224 -1e-6,-2.79466 0.762665,-4.19199 2.288,-4.192 0.490663,10e-6 0.911996,0.18134 1.264,0.544 0.426662,0.42668 0.639995,1.04001 0.64,1.84 m -1.472,-0.096 c -3e-6,-0.69332 -0.149337,-1.03999 -0.448,-1.04 -0.458669,10e-6 -0.688002,0.83734 -0.688,2.512 -2e-6,0.19201 0.0053,0.32534 0.016,0.4 0.255997,-0.0213 0.50133,-0.19733 0.736,-0.528 0.255997,-0.37333 0.383997,-0.82132 0.384,-1.344"
         id="path3059"
         style="marker:none" />
      <path
         d="m 71.885783,902.9483 -1.472,0 0,-0.496 -0.528,0.544 c -0.064,0.0213 -0.144003,0.032 -0.24,0.032 -0.512002,0 -0.960002,-0.256 -1.344,-0.768 -0.384001,-0.52266 -0.576001,-1.16799 -0.576,-1.936 -1e-6,-1.11999 0.341332,-2.02666 1.024,-2.72 0.501331,-0.50132 1.018664,-0.78932 1.552,-0.864 l 0,-0.16 c -3e-6,-0.45866 -0.229336,-0.68799 -0.688,-0.688 -0.330669,10e-6 -0.672002,0.048 -1.024,0.144 l 0,-1.28 c 0.341332,-0.096 0.730664,-0.14399 1.168,-0.144 1.418663,10e-6 2.127995,0.80001 2.128,2.4 l 0,5.936 m -1.584,-1.696 0,-3.216 c -0.20267,0.0213 -0.410669,0.21334 -0.624,0.576 -0.288002,0.45867 -0.432002,1.02934 -0.432,1.712 -2e-6,0.928 0.191998,1.392 0.576,1.392 0.21333,0 0.37333,-0.15466 0.48,-0.464"
         id="path3061"
         style="marker:none" />
      <path
         d="m 76.518533,900.6283 c -4e-6,0.69334 -0.240004,1.26934 -0.72,1.728 -0.469337,0.448 -1.045336,0.672 -1.728,0.672 -0.554668,0 -1.040001,-0.0907 -1.456,-0.272 l 0.624,-1.232 c 0.191999,0.096 0.421332,0.144 0.688,0.144 0.245331,0 0.453331,-0.08 0.624,-0.24 0.181331,-0.17066 0.271997,-0.37866 0.272,-0.624 -3e-6,-0.56533 -0.261336,-1.14133 -0.784,-1.728 -0.501335,-0.55466 -0.832001,-0.98133 -0.992,-1.28 -0.181334,-0.34132 -0.272001,-0.71466 -0.272,-1.12 -1e-6,-0.58666 0.207999,-1.07732 0.624,-1.472 0.415998,-0.39466 0.927998,-0.59199 1.536,-0.592 0.426663,10e-6 0.847996,0.08 1.264,0.24 l -0.576,1.168 c -0.149337,-0.0747 -0.34667,-0.11199 -0.592,-0.112 -0.170669,10e-6 -0.320003,0.064 -0.448,0.192 -0.128002,0.11734 -0.192002,0.26134 -0.192,0.432 -2e-6,0.35201 0.250664,0.77868 0.752,1.28 0.50133,0.50134 0.847996,0.94401 1.04,1.328 0.223996,0.43734 0.335996,0.93334 0.336,1.488"
         id="path3063"
         style="marker:none" />
      <path
         d="m 83.260783,902.9483 -1.472,0 0,-0.496 -0.528,0.544 c -0.064,0.0213 -0.144003,0.032 -0.24,0.032 -0.512002,0 -0.960002,-0.256 -1.344,-0.768 -0.384001,-0.52266 -0.576001,-1.16799 -0.576,-1.936 -1e-6,-1.11999 0.341332,-2.02666 1.024,-2.72 0.501331,-0.50132 1.018664,-0.78932 1.552,-0.864 l 0,-0.16 c -3e-6,-0.45866 -0.229336,-0.68799 -0.688,-0.688 -0.330669,10e-6 -0.672002,0.048 -1.024,0.144 l 0,-1.28 c 0.341332,-0.096 0.730664,-0.14399 1.168,-0.144 1.418663,10e-6 2.127995,0.80001 2.128,2.4 l 0,5.936 m -1.584,-1.696 0,-3.216 c -0.20267,0.0213 -0.410669,0.21334 -0.624,0.576 -0.288002,0.45867 -0.432002,1.02934 -0.432,1.712 -2e-6,0.928 0.191998,1.392 0.576,1.392 0.21333,0 0.37333,-0.15466 0.48,-0.464"
         id="path3065"
         style="marker:none" />
      <path
         d="m 88.821533,902.9483 -1.584,0 0,-5.904 c -4e-6,-0.29866 -0.05867,-0.54932 -0.176,-0.752 -0.117337,-0.21332 -0.26667,-0.31999 -0.448,-0.32 -0.192003,10e-6 -0.346669,0.10668 -0.464,0.32 -0.117336,0.20268 -0.176003,0.45334 -0.176,0.752 l 0,5.904 -1.584,0 0,-8.256 1.456,0 0,0.432 0.496,-0.496 c 0.05333,-0.0107 0.143997,-0.016 0.272,-0.016 1.471995,10e-6 2.207995,0.96001 2.208,2.88 l 0,5.456"
         id="path3067"
         style="marker:none" />
      <path
         d="m 94.304033,902.9483 -1.488,0 0,-0.432 -0.48,0.496 c -0.05334,0.0107 -0.12267,0.016 -0.208,0.016 -0.682669,0 -1.226669,-0.288 -1.632,-0.864 -0.469334,-0.66133 -0.704001,-1.61599 -0.704,-2.864 -10e-7,-1.56799 0.399999,-2.77866 1.2,-3.632 0.522664,-0.55466 1.098664,-0.87999 1.728,-0.976 l 0,-4.096 1.584,0 0,12.352 m -1.584,-1.68 0,-5.2 c -0.885336,0.29868 -1.328002,1.47201 -1.328,3.52 -2e-6,0.64001 0.07466,1.15734 0.224,1.552 0.159997,0.384 0.35733,0.576 0.592,0.576 0.24533,0 0.415996,-0.14933 0.512,-0.448"
         id="path3069"
         style="marker:none" />
      <path
         d="m 101.54203,902.9483 -1.472,0 0,-0.496 -0.527997,0.544 c -0.064,0.0213 -0.144003,0.032 -0.24,0.032 -0.512002,0 -0.960002,-0.256 -1.344,-0.768 -0.384001,-0.52266 -0.576001,-1.16799 -0.576,-1.936 -1e-6,-1.11999 0.341332,-2.02666 1.024,-2.72 0.501331,-0.50132 1.018664,-0.78932 1.552,-0.864 l 0,-0.16 c -3e-6,-0.45866 -0.229336,-0.68799 -0.688,-0.688 -0.330669,10e-6 -0.672002,0.048 -1.024,0.144 l 0,-1.28 c 0.341332,-0.096 0.730664,-0.14399 1.168,-0.144 1.418667,10e-6 2.127997,0.80001 2.127997,2.4 l 0,5.936 m -1.583997,-1.696 0,-3.216 c -0.20267,0.0213 -0.410669,0.21334 -0.624,0.576 -0.288002,0.45867 -0.432002,1.02934 -0.432,1.712 -2e-6,0.928 0.191998,1.392 0.576,1.392 0.21333,0 0.37333,-0.15466 0.48,-0.464"
         id="path3071"
         style="marker:none" />
      <path
         d="m 106.04678,902.9643 c -0.21333,0.0427 -0.46933,0.064 -0.768,0.064 -0.59733,0 -1.136,-0.22933 -1.616,-0.688 -0.768,-0.72533 -1.152,-1.89866 -1.152,-3.52 0,-1.62132 0.384,-2.79466 1.152,-3.52 0.48,-0.45866 1.01867,-0.68799 1.616,-0.688 0.29867,10e-6 0.54933,0.0213 0.752,0.064 l 0,1.248 c -0.128,-0.0213 -0.288,-0.032 -0.48,-0.032 -0.36267,10e-6 -0.66667,0.18134 -0.912,0.544 -0.352,0.50134 -0.528,1.29601 -0.528,2.384 0,1.08801 0.176,1.88267 0.528,2.384 0.24533,0.36267 0.54933,0.544 0.912,0.544 0.20267,0 0.368,-0.0107 0.496,-0.032 l 0,1.248"
         id="path3073"
         style="marker:none" />
      <path
         d="m 109.97828,902.9003 c -0.18133,0.032 -0.36267,0.048 -0.544,0.048 -0.608,0 -1.11467,-0.192 -1.52,-0.576 -0.56533,-0.53333 -0.848,-1.40799 -0.848,-2.624 l 0,-3.696 -0.528,0 0,-1.36 0.544,0 0,-1.904 1.504,0 0,1.904 1.216,0 0,1.36 -1.152,0 0,3.952 c 0,1.10934 0.32,1.664 0.96,1.664 0.096,0 0.21867,-0.0107 0.368,-0.032 l 0,1.264"
         id="path3075"
         style="marker:none" />
      <path
         d="m 112.31953,893.3323 -1.456,0 0,-2.24 1.456,0 0,2.24 m 0.064,9.616 -1.584,0 0,-8.256 1.584,0 0,8.256"
         id="path3077"
         style="marker:none" />
      <path
         d="m 118.18278,898.8203 c 0,1.64267 -0.288,2.81067 -0.864,3.504 -0.384,0.46934 -0.87467,0.704 -1.472,0.704 -0.58667,0 -1.07733,-0.23466 -1.472,-0.704 -0.576,-0.69333 -0.864,-1.86133 -0.864,-3.504 0,-1.64266 0.288,-2.81066 0.864,-3.504 0.39467,-0.46932 0.88533,-0.70399 1.472,-0.704 0.59733,10e-6 1.088,0.23468 1.472,0.704 0.576,0.69334 0.864,1.86134 0.864,3.504 m -1.584,0 c 0,-1.89866 -0.25067,-2.84799 -0.752,-2.848 -0.49067,10e-6 -0.736,0.94934 -0.736,2.848 0,1.89867 0.24533,2.848 0.736,2.848 0.50133,0 0.752,-0.94933 0.752,-2.848"
         id="path3079"
         style="marker:none" />
      <path
         d="m 123.57153,902.9483 -1.584,0 0,-5.904 c 0,-0.29866 -0.0587,-0.54932 -0.176,-0.752 -0.11733,-0.21332 -0.26667,-0.31999 -0.448,-0.32 -0.192,10e-6 -0.34667,0.10668 -0.464,0.32 -0.11733,0.20268 -0.176,0.45334 -0.176,0.752 l 0,5.904 -1.584,0 0,-8.256 1.456,0 0,0.432 0.496,-0.496 c 0.0533,-0.0107 0.144,-0.016 0.272,-0.016 1.472,10e-6 2.208,0.96001 2.208,2.88 l 0,5.456"
         id="path3081"
         style="marker:none" />
      <path
         d="m 129.97903,891.8283 c -0.128,-0.0213 -0.23467,-0.032 -0.32,-0.032 -0.672,10e-6 -1.008,0.59201 -1.008,1.776 l 0,1.12 1.248,0 0,1.36 -1.248,0 0,6.896 -1.584,0 0,-6.896 -0.528,0 0,-1.36 0.528,0 0,-1.024 c 0,-1.19465 0.28267,-2.05332 0.848,-2.576 0.40533,-0.37332 0.91733,-0.55998 1.536,-0.56 0.17067,2e-5 0.34667,0.016 0.528,0.048 l 0,1.248"
         id="path3083"
         style="marker:none" />
      <path
         d="m 134.83903,898.8203 c 0,1.64267 -0.288,2.81067 -0.864,3.504 -0.384,0.46934 -0.87467,0.704 -1.472,0.704 -0.58667,0 -1.07733,-0.23466 -1.472,-0.704 -0.576,-0.69333 -0.864,-1.86133 -0.864,-3.504 0,-1.64266 0.288,-2.81066 0.864,-3.504 0.39467,-0.46932 0.88533,-0.70399 1.472,-0.704 0.59733,10e-6 1.088,0.23468 1.472,0.704 0.576,0.69334 0.864,1.86134 0.864,3.504 m -1.584,0 c 0,-1.89866 -0.25067,-2.84799 -0.752,-2.848 -0.49067,10e-6 -0.736,0.94934 -0.736,2.848 0,1.89867 0.24533,2.848 0.736,2.848 0.50133,0 0.752,-0.94933 0.752,-2.848"
         id="path3085"
         style="marker:none" />
      <path
         d="m 138.86778,896.0523 -0.192,0 c -0.384,1e-5 -0.69867,0.14401 -0.944,0.432 -0.23467,0.28801 -0.352,0.67201 -0.352,1.152 l 0,5.312 -1.584,0 0,-8.256 1.504,0 0,0.656 c 0.29867,-0.43732 0.72533,-0.65599 1.28,-0.656 l 0.288,0 0,1.36"
         id="path3087"
         style="marker:none" />
      <path
         d="m 144.66578,902.9003 c -0.18133,0.032 -0.36267,0.048 -0.544,0.048 -0.608,0 -1.11467,-0.192 -1.52,-0.576 -0.56533,-0.53333 -0.848,-1.40799 -0.848,-2.624 l 0,-3.696 -0.528,0 0,-1.36 0.544,0 0,-1.904 1.504,0 0,1.904 1.216,0 0,1.36 -1.152,0 0,3.952 c 0,1.10934 0.32,1.664 0.96,1.664 0.096,0 0.21867,-0.0107 0.368,-0.032 l 0,1.264"
         id="path3089"
         style="marker:none" />
      <path
         d="m 149.91903,902.9483 -1.584,0 0,-5.904 c 0,-0.29866 -0.0587,-0.54932 -0.176,-0.752 -0.11733,-0.21332 -0.26667,-0.31999 -0.448,-0.32 -0.192,10e-6 -0.34667,0.10668 -0.464,0.32 -0.11733,0.20268 -0.176,0.45334 -0.176,0.752 l 0,5.904 -1.584,0 0,-12.352 1.52,0 0,4.464 0.432,-0.432 c 0.0533,-0.0107 0.144,-0.016 0.272,-0.016 1.472,10e-6 2.208,0.96001 2.208,2.88 l 0,5.456"
         id="path3091"
         style="marker:none" />
      <path
         d="m 155.07778,896.9963 c 0,0.91734 -0.32533,1.67467 -0.976,2.272 -0.512,0.48001 -1.02933,0.74134 -1.552,0.784 0.0747,1.13067 0.44267,1.696 1.104,1.696 0.224,0 0.384,-0.0107 0.48,-0.032 l 0,1.248 c -0.192,0.0427 -0.39467,0.064 -0.608,0.064 -1.76,0 -2.64,-1.408 -2.64,-4.224 0,-2.79466 0.76267,-4.19199 2.288,-4.192 0.49067,10e-6 0.912,0.18134 1.264,0.544 0.42666,0.42668 0.64,1.04001 0.64,1.84 m -1.472,-0.096 c 0,-0.69332 -0.14933,-1.03999 -0.448,-1.04 -0.45867,10e-6 -0.688,0.83734 -0.688,2.512 0,0.19201 0.005,0.32534 0.016,0.4 0.256,-0.0213 0.50133,-0.19733 0.736,-0.528 0.256,-0.37333 0.384,-0.82132 0.384,-1.344"
         id="path3093"
         style="marker:none" />
      <path
         d="m 162.36653,903.0763 c 0,1.792 -0.752,2.688 -2.256,2.688 -0.24533,0 -0.50667,-0.0267 -0.784,-0.08 l 0,-1.28 c 0.23467,0.064 0.45333,0.096 0.656,0.096 0.53333,0 0.8,-0.26666 0.8,-0.8 l 0,-0.752 c -0.62933,-0.096 -1.20533,-0.42133 -1.728,-0.976 -0.8,-0.85333 -1.2,-2.06399 -1.2,-3.632 0,-1.24799 0.23467,-2.20266 0.704,-2.864 0.40533,-0.57599 0.94933,-0.86399 1.632,-0.864 0.0853,10e-6 0.15467,0.005 0.208,0.016 l 0.48,0.496 0,-0.432 1.488,0 0,8.384 m -1.584,-1.504 0,-5.2 c -0.096,-0.29866 -0.26667,-0.44799 -0.512,-0.448 -0.23467,10e-6 -0.432,0.19734 -0.592,0.592 -0.14933,0.38401 -0.224,0.89601 -0.224,1.536 0,2.04801 0.44267,3.22134 1.328,3.52"
         id="path3095"
         style="marker:none" />
      <path
         d="m 165.22728,902.9483 -1.584,0 0,-12.352 1.584,0 0,12.352"
         id="path3097"
         style="marker:none" />
      <path
         d="m 171.02653,898.8203 c 0,1.64267 -0.288,2.81067 -0.864,3.504 -0.384,0.46934 -0.87467,0.704 -1.472,0.704 -0.58667,0 -1.07733,-0.23466 -1.472,-0.704 -0.576,-0.69333 -0.864,-1.86133 -0.864,-3.504 0,-1.64266 0.288,-2.81066 0.864,-3.504 0.39467,-0.46932 0.88533,-0.70399 1.472,-0.704 0.59733,10e-6 1.088,0.23468 1.472,0.704 0.576,0.69334 0.864,1.86134 0.864,3.504 m -1.584,0 c 0,-1.89866 -0.25067,-2.84799 -0.752,-2.848 -0.49067,10e-6 -0.736,0.94934 -0.736,2.848 0,1.89867 0.24533,2.848 0.736,2.848 0.50133,0 0.752,-0.94933 0.752,-2.848"
         id="path3099"
         style="marker:none" />
      <path
         d="m 176.65528,899.3003 c 0,1.24801 -0.23467,2.20267 -0.704,2.864 -0.40533,0.576 -0.94933,0.864 -1.632,0.864 -0.0853,0 -0.15467,-0.005 -0.208,-0.016 l -0.48,-0.496 0,0.432 -1.488,0 0,-12.352 1.584,0 0,4.096 c 0.62933,0.096 1.20533,0.42134 1.728,0.976 0.8,0.85334 1.2,2.06401 1.2,3.632 m -1.6,0.288 c 0,-2.04799 -0.44267,-3.22132 -1.328,-3.52 l 0,5.2 c 0.096,0.29867 0.26667,0.448 0.512,0.448 0.23467,0 0.42667,-0.192 0.576,-0.576 0.16,-0.39466 0.24,-0.91199 0.24,-1.552"
         id="path3101"
         style="marker:none" />
      <path
         d="m 181.44828,902.9483 -1.472,0 0,-0.496 -0.528,0.544 c -0.064,0.0213 -0.144,0.032 -0.24,0.032 -0.512,0 -0.96,-0.256 -1.344,-0.768 -0.384,-0.52266 -0.576,-1.16799 -0.576,-1.936 0,-1.11999 0.34134,-2.02666 1.024,-2.72 0.50133,-0.50132 1.01867,-0.78932 1.552,-0.864 l 0,-0.16 c 0,-0.45866 -0.22933,-0.68799 -0.688,-0.688 -0.33067,10e-6 -0.672,0.048 -1.024,0.144 l 0,-1.28 c 0.34133,-0.096 0.73067,-0.14399 1.168,-0.144 1.41867,10e-6 2.128,0.80001 2.128,2.4 l 0,5.936 m -1.584,-1.696 0,-3.216 c -0.20267,0.0213 -0.41067,0.21334 -0.624,0.576 -0.288,0.45867 -0.432,1.02934 -0.432,1.712 0,0.928 0.192,1.392 0.576,1.392 0.21333,0 0.37333,-0.15466 0.48,-0.464"
         id="path3103"
         style="marker:none" />
      <path
         d="m 184.32103,902.9483 -1.584,0 0,-12.352 1.584,0 0,12.352"
         id="path3105"
         style="marker:none" />
      <path
         d="m 189.41328,893.3323 -1.456,0 0,-2.24 1.456,0 0,2.24 m 0.064,9.232 c 0,1.216 -0.28267,2.096 -0.848,2.64 -0.39467,0.37333 -0.90133,0.56 -1.52,0.56 -0.18133,0 -0.36266,-0.016 -0.544,-0.048 l 0,-1.264 c 0.128,0.0213 0.24,0.032 0.336,0.032 0.66134,0 0.992,-0.55466 0.992,-1.664 l 0,-8.128 1.584,0 0,7.872"
         id="path3107"
         style="marker:none" />
      <path
         d="m 195.19653,900.1483 c 0,0.94934 -0.20267,1.66934 -0.608,2.16 -0.39467,0.48 -0.928,0.72 -1.6,0.72 -0.68267,0 -1.216,-0.23466 -1.6,-0.704 -0.416,-0.50133 -0.624,-1.22666 -0.624,-2.176 l 0,-5.456 1.584,0 0,5.904 c 0,0.29867 0.0587,0.55467 0.176,0.768 0.11733,0.20267 0.272,0.304 0.464,0.304 0.18133,0 0.33067,-0.10133 0.448,-0.304 0.11733,-0.21333 0.176,-0.46933 0.176,-0.768 l 0,-5.904 1.584,0 0,5.456"
         id="path3109"
         style="marker:none" />
      <path
         d="m 199.83103,900.6283 c 0,0.69334 -0.24,1.26934 -0.72,1.728 -0.46933,0.448 -1.04533,0.672 -1.728,0.672 -0.55467,0 -1.04,-0.0907 -1.456,-0.272 l 0.624,-1.232 c 0.192,0.096 0.42133,0.144 0.688,0.144 0.24533,0 0.45333,-0.08 0.624,-0.24 0.18133,-0.17066 0.272,-0.37866 0.272,-0.624 0,-0.56533 -0.26133,-1.14133 -0.784,-1.728 -0.50133,-0.55466 -0.832,-0.98133 -0.992,-1.28 -0.18133,-0.34132 -0.272,-0.71466 -0.272,-1.12 0,-0.58666 0.208,-1.07732 0.624,-1.472 0.416,-0.39466 0.928,-0.59199 1.536,-0.592 0.42667,10e-6 0.848,0.08 1.264,0.24 l -0.576,1.168 c -0.14933,-0.0747 -0.34667,-0.11199 -0.592,-0.112 -0.17067,10e-6 -0.32,0.064 -0.448,0.192 -0.128,0.11734 -0.192,0.26134 -0.192,0.432 0,0.35201 0.25067,0.77868 0.752,1.28 0.50133,0.50134 0.848,0.94401 1.04,1.328 0.224,0.43734 0.336,0.93334 0.336,1.488"
         id="path3111"
         style="marker:none" />
      <path
         d="m 203.72828,902.9003 c -0.18133,0.032 -0.36267,0.048 -0.544,0.048 -0.608,0 -1.11467,-0.192 -1.52,-0.576 -0.56533,-0.53333 -0.848,-1.40799 -0.848,-2.624 l 0,-3.696 -0.528,0 0,-1.36 0.544,0 0,-1.904 1.504,0 0,1.904 1.216,0 0,1.36 -1.152,0 0,3.952 c 0,1.10934 0.32,1.664 0.96,1.664 0.096,0 0.21867,-0.0107 0.368,-0.032 l 0,1.264"
         id="path3113"
         style="marker:none" />
      <path
         d="m 206.06953,893.3323 -1.456,0 0,-2.24 1.456,0 0,2.24 m 0.064,9.616 -1.584,0 0,-8.256 1.584,0 0,8.256"
         id="path3115"
         style="marker:none" />
      <path
         d="m 210.79678,902.9643 c -0.21333,0.0427 -0.46933,0.064 -0.768,0.064 -0.59733,0 -1.136,-0.22933 -1.616,-0.688 -0.768,-0.72533 -1.152,-1.89866 -1.152,-3.52 0,-1.62132 0.384,-2.79466 1.152,-3.52 0.48,-0.45866 1.01867,-0.68799 1.616,-0.688 0.29867,10e-6 0.54933,0.0213 0.752,0.064 l 0,1.248 c -0.128,-0.0213 -0.288,-0.032 -0.48,-0.032 -0.36267,10e-6 -0.66667,0.18134 -0.912,0.544 -0.352,0.50134 -0.528,1.29601 -0.528,2.384 0,1.08801 0.176,1.88267 0.528,2.384 0.24533,0.36267 0.54933,0.544 0.912,0.544 0.20267,0 0.368,-0.0107 0.496,-0.032 l 0,1.248"
         id="path3117"
         style="marker:none" />
      <path
         d="m 215.64028,896.9963 c 0,0.91734 -0.32533,1.67467 -0.976,2.272 -0.512,0.48001 -1.02933,0.74134 -1.552,0.784 0.0747,1.13067 0.44267,1.696 1.104,1.696 0.224,0 0.384,-0.0107 0.48,-0.032 l 0,1.248 c -0.192,0.0427 -0.39467,0.064 -0.608,0.064 -1.76,0 -2.64,-1.408 -2.64,-4.224 0,-2.79466 0.76267,-4.19199 2.288,-4.192 0.49067,10e-6 0.912,0.18134 1.264,0.544 0.42666,0.42668 0.64,1.04001 0.64,1.84 m -1.472,-0.096 c 0,-0.69332 -0.14933,-1.03999 -0.448,-1.04 -0.45867,10e-6 -0.688,0.83734 -0.688,2.512 0,0.19201 0.005,0.32534 0.016,0.4 0.256,-0.0213 0.50133,-0.19733 0.736,-0.528 0.256,-0.37333 0.384,-0.82132 0.384,-1.344"
         id="path3119"
         style="marker:none" />
    </g>
    <g
       id="text4123-9-1"
       style="font-size:36px;font-style:normal;font-variant:normal;font-weight:normal;font-stretch:normal;text-align:start;line-height:125%;letter-spacing:0px;word-spacing:0px;writing-mode:lr-tb;text-anchor:start;fill:#f9f9f9;fill-opacity:1;stroke:none;font-family:BodegaSans Medium;-inkscape-font-specification:'BodegaSans Medium,'">
      <path
         d="m 31.841795,883.15527 -1.836,0 -6.228,-15.84 0,15.84 -3.672,0 0,-27.792 1.836,0 6.192,15.948 0,-15.948 3.708,0 0,27.792"
         id="path3002"
         style="line-height:125%;fill:#f9f9f9;font-family:BodegaSans Medium;-inkscape-font-specification:'BodegaSans Medium,'" />
      <path
         d="m 43.862983,869.76327 c -1e-5,2.06401 -0.73201,3.76801 -2.196,5.112 -1.152007,1.08001 -2.316006,1.66801 -3.492,1.764 0.167995,2.54401 0.995994,3.81601 2.484,3.816 0.503992,10e-6 0.863992,-0.024 1.08,-0.072 l 0,2.808 c -0.432008,0.096 -0.888007,0.144 -1.368,0.144 -3.960003,0 -5.940001,-3.16799 -5.94,-9.504 -10e-7,-6.28798 1.715997,-9.43198 5.148,-9.432 1.103993,2e-5 2.051992,0.40802 2.844,1.224 0.95999,0.96002 1.43999,2.34002 1.44,4.14 m -3.312,-0.216 c -7e-6,-1.55998 -0.336007,-2.33998 -1.008,-2.34 -1.032005,2e-5 -1.548004,1.88402 -1.548,5.652 -4e-6,0.43201 0.01199,0.73201 0.036,0.9 0.575995,-0.048 1.127994,-0.44399 1.656,-1.188 0.575993,-0.83999 0.863993,-1.84798 0.864,-3.024"
         id="path3004"
         style="line-height:125%;fill:#f9f9f9;font-family:BodegaSans Medium;-inkscape-font-specification:'BodegaSans Medium,'" />
      <path
         d="m 62.60942,864.57927 -3.816,18.576 -2.844,0 -2.268,-10.584 -2.196,10.584 -2.844,0 -3.852,-18.576 3.096,0 2.304,12.636 2.232,-12.636 2.628,0 2.268,12.672 2.268,-12.672 3.024,0"
         id="path3006"
         style="line-height:125%;fill:#f9f9f9;font-family:BodegaSans Medium;-inkscape-font-specification:'BodegaSans Medium,'" />
      <path
         d="m 73.28117,883.15527 -3.816,0 0,-27.792 3.816,0 0,27.792"
         id="path3008"
         style="line-height:125%;fill:#f9f9f9;font-family:BodegaSans Medium;-inkscape-font-specification:'BodegaSans Medium,'" />
      <path
         d="m 86.177045,883.15527 -3.564,0 0,-13.284 c -7e-6,-0.67198 -0.132007,-1.23598 -0.396,-1.692 -0.264007,-0.47998 -0.600006,-0.71998 -1.008,-0.72 -0.432005,2e-5 -0.780005,0.24002 -1.044,0.72 -0.264004,0.45602 -0.396004,1.02002 -0.396,1.692 l 0,13.284 -3.564,0 0,-18.576 3.276,0 0,0.972 1.116,-1.116 c 0.119995,-0.024 0.323994,-0.036 0.612,-0.036 3.311991,2e-5 4.967989,2.16002 4.968,6.48 l 0,12.276"
         id="path3010"
         style="line-height:125%;fill:#f9f9f9;font-family:BodegaSans Medium;-inkscape-font-specification:'BodegaSans Medium,'" />
      <path
         d="m 95.74067,883.04727 c -0.408007,0.072 -0.816007,0.108 -1.224,0.108 -1.368005,0 -2.508004,-0.432 -3.42,-1.296 -1.272002,-1.19999 -1.908001,-3.16799 -1.908,-5.904 l 0,-8.316 -1.188,0 0,-3.06 1.224,0 0,-4.284 3.384,0 0,4.284 2.736,0 0,3.06 -2.592,0 0,8.892 c -5e-6,2.49601 0.719994,3.74401 2.16,3.744 0.215993,10e-6 0.491993,-0.024 0.828,-0.072 l 0,2.844"
         id="path3012"
         style="line-height:125%;fill:#f9f9f9;font-family:BodegaSans Medium;-inkscape-font-specification:'BodegaSans Medium,'" />
      <path
         d="m 106.30048,869.76327 c -10e-6,2.06401 -0.73201,3.76801 -2.196,5.112 -1.152,1.08001 -2.316,1.66801 -3.492,1.764 0.168,2.54401 0.996,3.81601 2.484,3.816 0.504,10e-6 0.86399,-0.024 1.08,-0.072 l 0,2.808 c -0.432,0.096 -0.888,0.144 -1.368,0.144 -3.96,0 -5.939998,-3.16799 -5.939997,-9.504 -10e-7,-6.28798 1.715997,-9.43198 5.147997,-9.432 1.104,2e-5 2.05199,0.40802 2.844,1.224 0.95999,0.96002 1.43999,2.34002 1.44,4.14 m -3.312,-0.216 c 0,-1.55998 -0.336,-2.33998 -1.008,-2.34 -1.032,2e-5 -1.548,1.88402 -1.548,5.652 0,0.43201 0.012,0.73201 0.036,0.9 0.576,-0.048 1.128,-0.44399 1.656,-1.188 0.576,-0.83999 0.864,-1.84798 0.864,-3.024"
         id="path3014"
         style="line-height:125%;fill:#f9f9f9;font-family:BodegaSans Medium;-inkscape-font-specification:'BodegaSans Medium,'" />
      <path
         d="m 115.03892,867.63927 -0.432,0 c -0.86401,2e-5 -1.57201,0.32402 -2.124,0.972 -0.528,0.64802 -0.792,1.51202 -0.792,2.592 l 0,11.952 -3.564,0 0,-18.576 3.384,0 0,1.476 c 0.672,-0.98398 1.63199,-1.47598 2.88,-1.476 l 0.648,0 0,3.06"
         id="path3016"
         style="line-height:125%;fill:#f9f9f9;font-family:BodegaSans Medium;-inkscape-font-specification:'BodegaSans Medium,'" />
      <path
         d="m 126.25517,883.15527 -3.564,0 0,-13.284 c -1e-5,-0.67198 -0.13201,-1.23598 -0.396,-1.692 -0.26401,-0.47998 -0.60001,-0.71998 -1.008,-0.72 -0.43201,2e-5 -0.78001,0.24002 -1.044,0.72 -0.264,0.45602 -0.396,1.02002 -0.396,1.692 l 0,13.284 -3.564,0 0,-18.576 3.276,0 0,0.972 1.116,-1.116 c 0.11999,-0.024 0.32399,-0.036 0.612,-0.036 3.31199,2e-5 4.96799,2.16002 4.968,6.48 l 0,12.276"
         id="path3018"
         style="line-height:125%;fill:#f9f9f9;font-family:BodegaSans Medium;-inkscape-font-specification:'BodegaSans Medium,'" />
      <path
         d="m 137.4388,883.15527 -3.312,0 0,-1.116 -1.188,1.224 c -0.14401,0.048 -0.32401,0.072 -0.54,0.072 -1.15201,0 -2.16001,-0.576 -3.024,-1.728 -0.86401,-1.17599 -1.29601,-2.62799 -1.296,-4.356 -1e-5,-2.51999 0.76799,-4.55999 2.304,-6.12 1.12799,-1.12798 2.29199,-1.77598 3.492,-1.944 l 0,-0.36 c -1e-5,-1.03198 -0.51601,-1.54798 -1.548,-1.548 -0.74401,2e-5 -1.51201,0.10802 -2.304,0.324 l 0,-2.88 c 0.76799,-0.21598 1.64399,-0.32398 2.628,-0.324 3.19199,2e-5 4.78799,1.80002 4.788,5.4 l 0,13.356 m -3.564,-3.816 0,-7.236 c -0.45601,0.048 -0.92401,0.48001 -1.404,1.296 -0.64801,1.03201 -0.97201,2.31601 -0.972,3.852 -10e-6,2.08801 0.43199,3.13201 1.296,3.132 0.47999,10e-6 0.83999,-0.34799 1.08,-1.044"
         id="path3020"
         style="line-height:125%;fill:#f9f9f9;font-family:BodegaSans Medium;-inkscape-font-specification:'BodegaSans Medium,'" />
      <path
         d="m 146.99848,883.04727 c -0.408,0.072 -0.816,0.108 -1.224,0.108 -1.368,0 -2.508,-0.432 -3.42,-1.296 -1.272,-1.19999 -1.908,-3.16799 -1.908,-5.904 l 0,-8.316 -1.188,0 0,-3.06 1.224,0 0,-4.284 3.384,0 0,4.284 2.736,0 0,3.06 -2.592,0 0,8.892 c 0,2.49601 0.72,3.74401 2.16,3.744 0.216,10e-6 0.492,-0.024 0.828,-0.072 l 0,2.844"
         id="path3022"
         style="line-height:125%;fill:#f9f9f9;font-family:BodegaSans Medium;-inkscape-font-specification:'BodegaSans Medium,'" />
      <path
         d="m 152.2663,861.51927 -3.276,0 0,-5.04 3.276,0 0,5.04 m 0.144,21.636 -3.564,0 0,-18.576 3.564,0 0,18.576"
         id="path3024"
         style="line-height:125%;fill:#f9f9f9;font-family:BodegaSans Medium;-inkscape-font-specification:'BodegaSans Medium,'" />
      <path
         d="m 165.45861,873.86727 c -1e-5,3.69601 -0.64801,6.32401 -1.944,7.884 -0.86401,1.056 -1.96801,1.584 -3.312,1.584 -1.32001,0 -2.42401,-0.528 -3.312,-1.584 -1.296,-1.55999 -1.944,-4.18799 -1.944,-7.884 0,-3.69598 0.648,-6.32398 1.944,-7.884 0.88799,-1.05598 1.99199,-1.58398 3.312,-1.584 1.34399,2e-5 2.44799,0.52802 3.312,1.584 1.29599,1.56002 1.94399,4.18802 1.944,7.884 m -3.564,0 c -1e-5,-4.27198 -0.56401,-6.40798 -1.692,-6.408 -1.10401,2e-5 -1.65601,2.13602 -1.656,6.408 -10e-6,4.27201 0.55199,6.40801 1.656,6.408 1.12799,10e-6 1.69199,-2.13599 1.692,-6.408"
         id="path3026"
         style="line-height:125%;fill:#f9f9f9;font-family:BodegaSans Medium;-inkscape-font-specification:'BodegaSans Medium,'" />
      <path
         d="m 177.5833,883.15527 -3.564,0 0,-13.284 c -10e-6,-0.67198 -0.13201,-1.23598 -0.396,-1.692 -0.26401,-0.47998 -0.60001,-0.71998 -1.008,-0.72 -0.43201,2e-5 -0.78001,0.24002 -1.044,0.72 -0.26401,0.45602 -0.39601,1.02002 -0.396,1.692 l 0,13.284 -3.564,0 0,-18.576 3.276,0 0,0.972 1.116,-1.116 c 0.11999,-0.024 0.32399,-0.036 0.612,-0.036 3.31199,2e-5 4.96798,2.16002 4.968,6.48 l 0,12.276"
         id="path3028"
         style="line-height:125%;fill:#f9f9f9;font-family:BodegaSans Medium;-inkscape-font-specification:'BodegaSans Medium,'" />
      <path
         d="m 188.76692,883.15527 -3.312,0 0,-1.116 -1.188,1.224 c -0.144,0.048 -0.324,0.072 -0.54,0.072 -1.152,0 -2.16,-0.576 -3.024,-1.728 -0.864,-1.17599 -1.296,-2.62799 -1.296,-4.356 0,-2.51999 0.768,-4.55999 2.304,-6.12 1.128,-1.12798 2.292,-1.77598 3.492,-1.944 l 0,-0.36 c -1e-5,-1.03198 -0.51601,-1.54798 -1.548,-1.548 -0.744,2e-5 -1.512,0.10802 -2.304,0.324 l 0,-2.88 c 0.768,-0.21598 1.644,-0.32398 2.628,-0.324 3.19199,2e-5 4.78799,1.80002 4.788,5.4 l 0,13.356 m -3.564,-3.816 0,-7.236 c -0.45601,0.048 -0.924,0.48001 -1.404,1.296 -0.648,1.03201 -0.972,2.31601 -0.972,3.852 0,2.08801 0.432,3.13201 1.296,3.132 0.47999,10e-6 0.83999,-0.34799 1.08,-1.044"
         id="path3030"
         style="line-height:125%;fill:#f9f9f9;font-family:BodegaSans Medium;-inkscape-font-specification:'BodegaSans Medium,'" />
      <path
         d="m 195.23061,883.15527 -3.564,0 0,-27.792 3.564,0 0,27.792"
         id="path3032"
         style="line-height:125%;fill:#f9f9f9;font-family:BodegaSans Medium;-inkscape-font-specification:'BodegaSans Medium,'" />
      <path
         d="m 201.90692,861.51927 -3.276,0 0,-5.04 3.276,0 0,5.04 m 0.144,21.636 -3.564,0 0,-18.576 3.564,0 0,18.576"
         id="path3034"
         style="line-height:125%;fill:#f9f9f9;font-family:BodegaSans Medium;-inkscape-font-specification:'BodegaSans Medium,'" />
      <path
         d="m 212.83123,877.93527 c -1e-5,1.56001 -0.54001,2.85601 -1.62,3.888 -1.056,1.008 -2.352,1.512 -3.888,1.512 -1.248,0 -2.34,-0.204 -3.276,-0.612 l 1.404,-2.772 c 0.432,0.21601 0.948,0.32401 1.548,0.324 0.552,10e-6 1.02,-0.17999 1.404,-0.54 0.408,-0.38399 0.612,-0.85199 0.612,-1.404 0,-1.27199 -0.588,-2.56799 -1.764,-3.888 -1.128,-1.24799 -1.872,-2.20799 -2.232,-2.88 -0.408,-0.76798 -0.612,-1.60798 -0.612,-2.52 0,-1.31998 0.468,-2.42398 1.404,-3.312 0.936,-0.88798 2.088,-1.33198 3.456,-1.332 0.96,2e-5 1.908,0.18002 2.844,0.54 l -1.296,2.628 c -0.336,-0.16798 -0.78,-0.25198 -1.332,-0.252 -0.384,2e-5 -0.72,0.14402 -1.008,0.432 -0.288,0.26402 -0.432,0.58802 -0.432,0.972 0,0.79202 0.564,1.75202 1.692,2.88 1.128,1.12801 1.908,2.12401 2.34,2.988 0.50399,0.98401 0.75599,2.10001 0.756,3.348"
         id="path3036"
         style="line-height:125%;fill:#f9f9f9;font-family:BodegaSans Medium;-inkscape-font-specification:'BodegaSans Medium,'" />
      <path
         d="m 221.60005,883.04727 c -0.40801,0.072 -0.81601,0.108 -1.224,0.108 -1.36801,0 -2.50801,-0.432 -3.42,-1.296 -1.27201,-1.19999 -1.90801,-3.16799 -1.908,-5.904 l 0,-8.316 -1.188,0 0,-3.06 1.224,0 0,-4.284 3.384,0 0,4.284 2.736,0 0,3.06 -2.592,0 0,8.892 c -1e-5,2.49601 0.71999,3.74401 2.16,3.744 0.21599,10e-6 0.49199,-0.024 0.828,-0.072 l 0,2.844"
         id="path3038"
         style="line-height:125%;fill:#f9f9f9;font-family:BodegaSans Medium;-inkscape-font-specification:'BodegaSans Medium,'" />
    </g>
  </g>
</svg>
